<?xml version="1.0" encoding="UTF-8"?>
<svg id="Layer_1" data-name="Layer 1" xmlns="http://www.w3.org/2000/svg" viewBox="0 0 16 16">
  <defs>
    <style>
      .cls-1 {
        fill: #fff;
      }
    </style>
  </defs>
  <path class="cls-1" d="M12.7,12.49c-.6-1.46-2.03-2.49-3.7-2.49h-2c-1.67,0-3.11,1.03-3.7,2.49-1.11-1.17-1.8-2.75-1.8-4.49C1.5,4.41,4.41,1.5,8,1.5s6.5,2.91,6.5,6.5c0,1.74-.68,3.32-1.8,4.49Zm-1.25,1.02c-1,.63-2.18,.99-3.45,.99s-2.45-.36-3.45-.99c.23-1.15,1.24-2.01,2.45-2.01h2c1.21,0,2.23,.86,2.45,2.01h0Zm-3.45,2.49c4.42,0,8-3.58,8-8S12.42,0,8,0,0,3.58,0,8s3.58,8,8,8Zm0-8.5c-.69,0-1.25-.56-1.25-1.25s.56-1.25,1.25-1.25,1.25,.56,1.25,1.25-.56,1.25-1.25,1.25Zm-2.75-1.25c0,1.52,1.23,2.75,2.75,2.75s2.75-1.23,2.75-2.75-1.23-2.75-2.75-2.75-2.75,1.23-2.75,2.75Z"/>
</svg>