<?xml version="1.0" encoding="utf-8"?>
<!-- Generator: Adobe Illustrator 26.5.0, SVG Export Plug-In . SVG Version: 6.00 Build 0)  -->
<svg version="1.1" id="Layer_1" xmlns="http://www.w3.org/2000/svg" xmlns:xlink="http://www.w3.org/1999/xlink" x="0px" y="0px"
	 viewBox="0 0 219.8 94.7" style="enable-background:new 0 0 219.8 94.7;" xml:space="preserve">
<style type="text/css">
	.st0{fill:#4C9FC8;}
	.st1{fill:#C8A04C;}
	.st2{fill:#9F0000;}
	.st3{fill:#7EC84C;}
	.st4{fill:#F8F691;}
	.st5{fill:#6CA940;}
	.st6{fill:#4087A9;}
	.st7{fill:#D2D07B;}
	.st8{fill:#A98740;}
	.st9{fill:#E60000;}
	.st10{fill:#C70000;}
	.st11{fill:#FFFFFF;}
	.st12{fill:#FF9CB9;}
	.st13{fill:#5FFCFF;}
</style>
<g>
	<g>
		<path class="st0" d="M48.2,89.2c-6.5-6.5-13-13.1-19.5-19.6c-0.1-0.1-0.3-0.2-0.3-0.4c0.1-0.2,0.3-0.2,0.4-0.3
			c2.8-0.5,5.7-1.1,8.5-1.6c5.5-1,11-2,16.5-3.1c1-0.2,1.9-0.4,2.9-0.5c0.2,0,0.3-0.1,0.5,0c0.3,0,0.6,0.2,0.8,0.4
			c3.2,3.2,6.5,6.4,9.7,9.7c3,3.1,6.1,6.1,9.2,9.2c0.1,0.1,0.3,0.3,0.4,0.4c0.1,0.2,0.2,0.3,0,0.5c-0.5,0.2-1.1,0.3-1.7,0.4
			c-2.7,0.5-5.5,1-8.2,1.5c-5.1,0.9-10.2,1.9-15.2,2.8c-1.2,0.2-2.5,0.4-3.7,0.5C48.4,89.2,48.3,89.2,48.2,89.2z"/>
		<path class="st1" d="M122.9,60.2c1.2,1.2,2.4,2.4,3.6,3.6c5.4,5.4,10.7,10.8,16.1,16.1c0.1,0.1,0.1,0.2,0.3,0.2c0,0,0,0,0,0.1
			c-0.1,0.2-0.3,0.3-0.5,0.3c-2,0.6-4,1.2-6,1.8c-2.1,0.6-4.3,1.3-6.4,2c-3,0.9-5.9,1.8-8.9,2.7c-1.3,0.4-2.6,0.8-3.8,1.2
			c-0.1,0-0.3,0.1-0.4,0.1c-0.3-0.1-0.5-0.3-0.8-0.5c-5.2-5.2-10.4-10.4-15.6-15.6c-1.2-1.2-2.4-2.4-3.6-3.6
			c-0.1-0.1-0.2-0.2-0.2-0.3c0,0,0-0.1,0-0.1c0.1-0.1,0.2-0.2,0.4-0.2c3.6-1.1,7.3-2.2,10.9-3.3c2.9-0.9,5.8-1.8,8.7-2.7
			c1.9-0.6,3.8-1.2,5.8-1.8C122.5,60.1,122.7,60.1,122.9,60.2z"/>
		<path class="st2" d="M81.5,62.8c0.1-0.4,0.2-0.8,0.5-1.2c-0.1,0.4-0.2,0.7-0.4,1.2c-0.2,0.7-0.4,1.5-0.5,2.2
			c0,0.2-0.1,0.5-0.4,0.5c-0.4,0.1-0.5-0.1-0.5-0.5c-0.1-0.7-0.2-1.3-0.4-1.9c0-0.1,0-0.2-0.1-0.4h0.1c0,0.1,0.1,0.2,0.1,0.4
			c0.2,0.6,0.4,1.2,0.4,1.9c0,0.2,0.1,0.4,0.4,0.4s0.2-0.2,0.2-0.4C81,64.2,81.3,63.5,81.5,62.8z"/>
		<path class="st2" d="M96.9,29.3c-0.6,1.7-1.2,3.4-1.9,5c0,0.2-0.1,0.4-0.1,0.6c0.1,0.1,0,0.2-0.1,0.4c-0.5,1.2-1,2.4-1.6,3.5
			c-0.2,0.6-0.6,1.2-0.8,1.8c-1,1.8-1.8,3.4-2.7,5.2c-0.4,0.7-0.7,1.3-1.1,2.1c-0.2,0.4-0.5,0.7-0.6,1.1c-0.7,1.2-1.5,2.4-2.1,3.6
			c-0.2,0.4-0.5,0.8-0.7,1.3c-0.5,0.7-0.8,1.5-1.2,2.2c-1.1,1.7-1.9,3.5-2.5,5.3c-0.2,0.5-0.4,1-0.5,1.5c-0.2-0.8-0.6-1.7-1-2.4
			c-0.8-1.9-1.9-3.9-3-5.8c-1-1.7-1.9-3.5-2.9-5.2c-1-1.6-1.9-3.3-2.8-5c-0.1-0.2-0.2-0.5-0.4-0.7c-0.1-0.2-0.2-0.4-0.4-0.6
			c-0.1-0.2-0.2-0.4-0.2-0.6c-0.1-0.1-0.2-0.4-0.1-0.5c-0.5-1.1-1.1-2.2-1.6-3.3c-0.6-1.2-1.2-2.4-1.7-3.8c-1.1-2.5-2.2-5.2-2.8-8
			c-0.1-0.4-0.2-0.8-0.2-1.3c-0.1-0.5-0.1-1-0.1-1.5c0-0.5,0.1-1,0.1-1.6c0-0.4,0-0.7,0.1-1.1c0-0.7,0.2-1.5,0.4-2.2
			c0.1-0.6,0.4-1.1,0.7-1.6c0.1-0.5,0.2-1,0.6-1.3c0.2-0.6,0.5-1.2,0.8-1.7c0.7-1.5,1.7-2.8,2.9-4c0.7-0.7,1.3-1.3,2.2-1.9
			c0.5-0.5,1-1,1.7-1.3c0.7-0.5,1.6-0.7,2.4-1h0.1c0.7-0.2,1.6-0.5,2.4-0.6c0.1,0,0.1,0,0.2,0c0.2,0,0.6-0.1,0.8-0.1
			c0.1,0,0.2-0.1,0.4-0.1h1.5c0.6,0,1.1,0,1.6,0.1c0.5,0.1,1,0.1,1.5,0.2c1,0.2,1.9,0.6,2.9,1c0.8,0.4,1.8,0.8,2.7,1.5
			c0.7,0.5,1.5,1.1,2.2,1.7c1,0.7,1.7,1.7,2.3,2.7c1.8,2.5,2.9,5.3,3.4,8.5C98,24.1,97.7,26.7,96.9,29.3z"/>
		<path class="st3" d="M118.7,56v0.1c0,0.1-0.1,0.2-0.4,0.2c-2.1,0.6-4.1,1.2-6.2,1.9c-2.2,0.6-4.4,1.3-6.5,1.9
			c-3,1-6.1,1.8-9.1,2.8c-1.2,0.4-2.5,0.7-3.8,1.1h-0.2c-0.1,0.1-0.2,0.1-0.4,0.1c0,0.1-0.1,0.1-0.1,0.1c-0.2-0.1-0.4-0.2-0.5-0.4
			l-0.2-0.2c-2.3-2.3-4.7-4.7-7-7l-0.1-0.1v-0.1l3.8-7.5c0.1-0.4,0.4-0.7,0.6-1.1c0.4-0.7,0.7-1.3,1.1-2.1c0.8-1.7,1.8-3.3,2.7-5
			c0.4-0.7,0.7-1.3,1.1-2.1c0.4-0.6,0.7-1.2,1-1.8c0.2,0,0.4-0.1,0.6-0.1c1.1-0.4,2.2-0.6,3.3-1c0.2-0.1,0.4-0.1,0.5,0.1
			C105.4,42.7,112,49.3,118.7,56z"/>
		<path class="st4" d="M92.5,63.9c1.3-0.4,2.6-0.8,3.9-1.2c7.3-2.2,14.5-4.4,21.8-6.6c0.2-0.1,0.3-0.1,0.5-0.1
			c1.4,1.4,2.8,2.8,4.2,4.2c-2.9,0.9-5.8,1.8-8.8,2.7c-5.8,1.8-11.7,3.6-17.5,5.3c-0.2,0-0.3-0.1-0.5-0.3c-1.2-1.2-2.3-2.4-3.5-3.5
			C92.5,64.2,92.4,64.1,92.5,63.9z"/>
		<path class="st3" d="M24.2,65.1c-0.2,0-0.3-0.2-0.4-0.3c-6.1-6.1-12.1-12.2-18.2-18.2c-0.1-0.1-0.2-0.2-0.3-0.3
			c-0.3-0.4-0.7-0.7-1.1-1.1c0.6-0.1,1.1-0.2,1.7-0.3c5.1-1,10.2-1.9,15.3-2.9c4-0.8,8.1-1.5,12.1-2.3c0,0,0.1,0,0.1,0
			c0.3,0.1,0.5,0.3,0.7,0.5c2.2,2.2,4.4,4.3,6.5,6.5c3.8,3.9,7.7,7.8,11.6,11.6c0.3,0.3,0.6,0.7,0.9,1c0.1,0.1,0.2,0.3,0.1,0.4
			c-0.1,0.1-0.2,0.1-0.4,0.1c-2.5,0.5-5.1,1-7.7,1.4c-5.8,1.1-11.5,2.1-17.3,3.2c-1,0.2-2.1,0.4-3.1,0.6
			C24.6,65.1,24.4,65.2,24.2,65.1z"/>
		<path class="st5" d="M79.9,62.6c0,0.1,0.1,0.2,0.1,0.4h-0.1c-1.6-0.1-3.1-0.4-4.7-0.6c-1.8-0.1-3.8-0.4-5.6-0.6
			c-1.9-0.2-4-0.5-5.9-0.7c-1.8-0.1-3.8-0.4-5.6-0.6c-1.2-0.1-2.5-0.2-3.9-0.4c-0.1-0.1-0.4-0.2-0.5-0.2c-0.1,0-0.1,0-0.1-0.1
			l-0.1-0.1c-0.1-0.1-0.1-0.1-0.2-0.1c-0.2-0.4-0.5-0.6-0.7-0.8c-3.8-3.8-7.4-7.4-11-11.1c-1.3-1.3-2.8-2.7-4.1-4.1
			c-1.2-1.1-2.3-2.3-3.5-3.5l-0.1-0.1c0,0-0.1-0.1-0.1-0.2c1,0.1,1.9,0.2,2.9,0.4c2.3,0.2,4.6,0.5,6.8,0.7c2.3,0.4,4.5,0.6,6.8,0.8
			c2.2,0.2,4.5,0.5,6.7,0.7c2.5,0.2,5,0.6,7.4,0.8c2.3,0.2,4.5,0.5,6.7,0.7c0.1,0.2,0.2,0.5,0.4,0.7c1.3,2.4,2.5,5,3.9,7.5
			c1.5,2.7,2.8,5.3,3.9,8.2c0.4,0.7,0.6,1.5,0.8,2.3v0.1H79.9z"/>
		<path class="st4" d="M53.2,59.6C53.2,59.6,53.3,59.6,53.2,59.6c0.4,0.1,0.6,0.3,0.8,0.5c1.1,1.1,2.2,2.2,3.3,3.3
			c0.1,0.1,0.3,0.2,0.2,0.5c-0.1,0-0.1,0-0.2,0.1c-0.8,0.1-1.5,0.3-2.3,0.4c-2,0.4-4,0.7-6.1,1.1c-2.5,0.5-5.1,1-7.6,1.4
			c-2.3,0.4-4.5,0.8-6.8,1.3c-2.1,0.4-4.1,0.8-6.2,1.2c-1.4-1.4-2.8-2.8-4.2-4.2c0.8-0.2,1.6-0.3,2.4-0.5c2.6-0.5,5.3-1,7.9-1.5
			c2.8-0.5,5.6-1,8.4-1.6c3.3-0.6,6.6-1.2,9.9-1.9C52.9,59.7,53.1,59.7,53.2,59.6z"/>
		<path class="st6" d="M57.3,63.9c0.1,0,0.1-0.1,0.2-0.1c0.1-0.2,0.3-0.2,0.4-0.2c1.1,0.1,2.2,0.3,3.4,0.4c1.4,0.2,2.7,0.3,4.1,0.5
			c1.4,0.2,2.7,0.3,4.1,0.5c0.5,0.1,1.1,0.1,1.6,0.2c0.3,0,0.5,0.1,0.8,0.3c3.9,3.9,7.7,7.7,11.6,11.6c2.5,2.6,5.1,5.1,7.6,7.7
			c0.1,0.1,0.4,0.3,0.3,0.5c-1-0.1-2.1-0.2-3.1-0.3c-2.7-0.3-5.4-0.6-8-0.9c-1-0.1-1.9-0.3-2.9-0.3c0-0.2-0.2-0.3-0.3-0.4
			c-2.9-2.9-5.8-5.8-8.7-8.7c-3.4-3.5-7-7-10.4-10.5C57.7,64.1,57.6,63.9,57.3,63.9z"/>
		<path class="st7" d="M102.7,86.4c0,0.1,0.1,0.2-0.1,0.2c-2.1-0.2-4.1-0.4-6.2-0.6c-1.6-0.2-3.1-0.4-4.8-0.6c0,0-0.1,0-0.2,0
			c-0.1-0.1-0.1-0.2-0.2-0.4c-6.3-6.3-12.6-12.6-18.9-19c-0.2-0.2-0.5-0.4-0.7-0.6c-0.4,0-0.6-0.1-1-0.1c-1.8-0.2-3.8-0.5-5.6-0.6
			c-1.6-0.2-3.1-0.4-4.7-0.6c-0.8-0.1-1.7-0.2-2.4-0.2c-0.1,0-0.1,0-0.2,0v-0.1h-0.1c-0.2-0.2-0.4-0.4-0.5-0.6
			c-1.2-1.1-2.4-2.3-3.6-3.5c0.1,0,0.1,0,0.2,0c0.8,0.1,1.8,0.2,2.7,0.2c1.1,0.2,2.3,0.4,3.4,0.5c1.3,0.1,2.8,0.2,4.1,0.5
			c1.2,0.1,2.4,0.2,3.6,0.4c1.3,0.1,2.7,0.4,4,0.5c1.1,0.1,2.3,0.2,3.4,0.4c1.2,0.1,2.3,0.2,3.5,0.4c0.6,0.1,1.1,0.1,1.6,0.2h0.1
			c0,0.1,0.1,0.2,0.1,0.4c0.2,0.6,0.4,1.2,0.4,1.9c0,0.2,0.1,0.4,0.4,0.4s0.2-0.2,0.2-0.4c0-0.7,0.2-1.5,0.5-2.2h0.1
			c0.1-0.1,0.1-0.1,0.4-0.1c1.9,0.2,3.9,0.5,5.8,0.7c1.2,0.1,2.4,0.2,3.5,0.4c0.2,0.1,0.5,0.1,0.7,0.1c0.1,0.1,0.4,0.1,0.5,0v0.2
			h0.1c0.2,0.2,0.4,0.4,0.5,0.6c1,1,2.1,2.1,3,3.1c0.1,0,0.1,0,0.2,0.1c0.1,0.1,0.1,0.1,0.1,0.1v0.1c-0.1,0.2-0.2,0.2-0.4,0.2
			c-1.5-0.2-2.9-0.4-4.4-0.5c-1.3-0.2-2.7-0.4-4.1-0.5c-1.2-0.2-2.5-0.4-3.9-0.5h-0.4c0.1,0.2,0.2,0.2,0.4,0.4
			c4.6,4.6,9.2,9.2,13.8,13.9c1.6,1.6,3.3,3.3,4.8,4.8C102.5,86.3,102.6,86.3,102.7,86.4z"/>
		<path class="st8" d="M102.6,86.7c0-0.2-0.1-0.3-0.2-0.4c-6.3-6.4-12.7-12.7-19-19.1c-0.1-0.1-0.3-0.2-0.3-0.4c0.3-0.1,0.5,0,0.8,0
			c0.9,0.1,1.9,0.2,2.8,0.3c0.9,0.1,1.8,0.2,2.7,0.3c1,0.1,1.9,0.2,2.9,0.3c0.9,0.1,1.9,0.2,2.8,0.3c0.4,0,0.8,0,1.1,0.2
			c0.2,0.1,0.3,0,0.5,0c0.2,0,0.3,0.2,0.4,0.3c6.4,6.4,12.8,12.8,19.2,19.2c0.1,0.1,0.2,0.3,0.5,0.3c-0.1,0.3-0.4,0.2-0.6,0.2
			c-1.2-0.2-2.4-0.3-3.6-0.4c-1.8-0.2-3.6-0.4-5.4-0.6c-1.4-0.2-2.9-0.3-4.3-0.5C102.7,86.7,102.7,86.7,102.6,86.7z"/>
		<path class="st9" d="M96.9,29.3c-0.6,1.7-1.2,3.4-1.9,5c0,0.2-0.1,0.4-0.1,0.6c0.1,0.1,0,0.2-0.1,0.4c-0.5,1.2-1,2.4-1.6,3.5
			c-0.1,0-0.2,0-0.2,0c-7.9,0-15.6,0-23.5,0.1c-0.2,0-0.6,0-0.8-0.1c-0.6-1.2-1.2-2.4-1.7-3.8c-1.1-2.5-2.2-5.2-2.8-8
			c-0.1-0.4-0.2-0.8-0.2-1.3c-0.1-0.5-0.1-1-0.1-1.5c0-0.5,0.1-1,0.1-1.6c0-0.4,0-0.7,0.1-1.1c0.1-0.2,0.1-0.6,0.2-1
			c0.2-1,0.5-1.9,0.8-2.8c0.1-0.5,0.2-1,0.6-1.3c0.2-0.6,0.5-1.2,0.8-1.7c0.7-1.5,1.7-2.8,2.9-4c0.7-0.7,1.3-1.3,2.2-1.9
			c1.2-1,2.5-1.7,4.1-2.3h0.1c0.7-0.2,1.6-0.5,2.4-0.6c0.1,0,0.1,0,0.2,0c0.2,0,0.6-0.1,0.8-0.1c0.6-0.1,1.2-0.1,1.8-0.1
			c0.6,0,1.1,0,1.6,0.1c0.5,0.1,1,0.1,1.5,0.2c1,0.2,1.9,0.6,2.9,1c0.8,0.4,1.8,0.8,2.7,1.5c0.6,0.2,1.1,0.6,1.6,1.1
			c0.2,0.1,0.5,0.4,0.6,0.6c1,0.7,1.7,1.7,2.3,2.7c1.8,2.5,2.9,5.3,3.4,8.5C98,24.1,97.7,26.7,96.9,29.3z"/>
		<path class="st10" d="M93.1,38.8c-0.2,0.6-0.6,1.2-0.8,1.8c-1,1.8-1.8,3.4-2.7,5.2c-0.4,0.7-0.7,1.3-1.1,2.1
			c-0.2,0.4-0.5,0.7-0.6,1.1c-0.5,0.7-1,1.5-1.3,2.2c-0.2,0.5-0.5,1-0.7,1.5c-0.2,0.4-0.5,0.8-0.7,1.3c-0.4,0.5-0.6,1.1-1,1.6
			c-0.1,0.2-0.2,0.4-0.2,0.6c-1.1,1.7-1.9,3.5-2.5,5.3c-0.2,0.5-0.4,1-0.5,1.5c-0.2-0.8-0.6-1.7-1-2.4c-0.8-1.9-1.9-3.9-3-5.8
			c-1-1.7-1.9-3.5-2.9-5.2c-1-1.6-1.9-3.3-2.8-5c-0.1-0.2-0.2-0.5-0.4-0.7c-0.1-0.2-0.2-0.4-0.4-0.6c-0.1-0.2-0.2-0.4-0.2-0.6
			c-0.1-0.1-0.2-0.4-0.1-0.5c-0.5-1.1-1.1-2.2-1.6-3.3c0.2,0.1,0.6,0.1,0.8,0.1h22.9c0.2,0,0.4,0,0.6-0.1
			C92.9,38.8,93,38.8,93.1,38.8z"/>
		<path class="st5" d="M92.5,63.9c-0.4,0.1-0.6,0.1-1,0.1c-0.1,0-0.4,0-0.5-0.1c-1.7-0.1-3.4-0.4-5.1-0.5c-1.6-0.2-2.9-0.4-4.4-0.6
			h-0.1c0.1-0.4,0.2-0.8,0.5-1.2c0.2-0.8,0.7-1.7,1.1-2.7c0.4-0.7,0.7-1.6,1.2-2.2c0-0.2,0.1-0.4,0.2-0.6c0.1,0,0.2,0.1,0.4,0.2
			c2.4,2.4,4.7,4.8,7.1,7.1C92.2,63.6,92.3,63.7,92.5,63.9z"/>
		<path class="st2" d="M75,23.9c-0.1-3.4,2.6-6.2,5.7-6.3c3.1,0,5.8,2.8,5.8,6.2c0,3.4-2.7,6.2-5.7,6.3C77.6,30.1,74.9,27.1,75,23.9
			z"/>
	</g>
	<g>
		<path class="st11" d="M63.3,8.7c0,0.3-0.1,0.8-0.3,1.5c-0.1,0.3-0.1,0.7-0.1,0.9c0,0.3-0.1,0.5-0.1,0.7c-0.1,0.2-0.2,0.5-0.3,0.9
			c-0.1,0.4-0.1,0.8-0.2,1.3c-0.1,0.4-0.1,0.8-0.2,1.1c-0.1,0.4-0.1,0.7-0.1,1.1c-0.1,0.2-0.2,0.3-0.2,0.5c-0.1,0.2-0.2,0.4-0.3,0.6
			l-1.8,10.9c-0.1,0.2-0.2,0.4-0.3,0.7c0,0.2,0,0.5,0.1,0.9l-1.5,7.8c-0.1,0.1-0.2,0.4-0.2,0.7c0,0.3,0,0.7,0,1.3
			c0,1.5-1.2,2.2-3.5,2.1c0,0-0.3,0-0.9,0c-0.6-0.1-1.4-0.1-2.4-0.3l-0.6-0.7l-2-12.5c-0.1-0.6-0.2-1-0.5-1.4
			c-0.3-0.3-0.7-0.6-1.1-0.9c-0.4,0.3-0.8,0.9-1.2,1.7c-0.3,0.8-0.6,1.9-0.7,3.2c-0.1-0.2-0.3-0.3-0.3-0.3l-0.1,0
			C44.2,31,44,31.2,44,31.1l0,0.1c0.6,0.1,0.9,0.2,0.9,0.6c0,0.1,0,0.3,0,0.4c0,0.2-0.1,0.4-0.1,0.5c-0.1,0.2-0.1,0.3-0.1,0.5
			c0,0.2-0.1,0.3-0.1,0.4c0,0.1-0.1,0.2-0.3,0.3l0.2,0.2l-1,6.4c-0.3,0.3-0.7,0.6-1.1,0.7c-0.5,0.2-1,0.3-1.7,0.3
			c-0.6,0-1.2,0-1.8-0.1c-0.6,0-1.2-0.1-1.7-0.2c-0.4-0.1-0.8-0.6-1.2-1.6c0,0,0-0.1,0-0.2c0-0.1,0-0.2,0-0.2c0-0.2,0-0.4,0-0.6
			s-0.1-0.4-0.1-0.7c-0.1-0.3-0.2-0.6-0.2-0.8c-0.1-0.2-0.1-0.3,0-0.4l-1-6.3c0-0.1-0.1-0.3-0.1-0.4c0-0.2-0.1-0.4-0.2-0.7
			c-0.1-0.2-0.1-0.4-0.2-0.6c0-0.2-0.1-0.3-0.1-0.5c0-0.1,0-0.2,0-0.2c0,0,0-0.1,0-0.2c0.1,0,0.1,0,0.3,0c0.2,0,0.6-0.2,1.1-0.7
			c-0.1-0.2-0.3-0.3-0.5-0.3c-0.1,0-0.3,0-0.5,0.1c-0.2,0.1-0.4,0.1-0.5,0.1l-0.2-0.2c-0.1-0.5-0.1-1.1-0.3-1.8
			c-0.1-0.7-0.3-1.6-0.4-2.7c-0.2-1.1-0.4-2.3-0.7-3.7c-0.3-1.4-0.6-3.1-0.9-4.9v-0.2c0-0.3,0-0.5-0.1-0.8c-0.1-0.3-0.1-0.6-0.3-1
			C31.1,11.4,31,11,31,10.8c-0.1-0.3-0.1-0.6-0.1-0.8c0-0.1,0-0.2,0-0.4c0-0.1,0-0.2,0.1-0.4c-0.2-0.2-0.3-0.5-0.3-0.8
			c0-0.3,0.1-0.6,0.3-0.8c0.3-0.1,0.7-0.3,1.1-0.3c0.4-0.1,1-0.2,1.6-0.2c0.7,0,1.7,0.1,2.9,0.3l1.3,1.5c0,0.6,0,1.3,0.1,2
			c0.1,0.7,0.1,1.6,0.3,2.5c0.1,0.9,0.3,1.9,0.4,3c0.2,1.1,0.3,2.2,0.5,3.5c-0.3,0.1-0.5,0.3-0.5,0.4c0,0,0,0.1,0.1,0.2
			c0.1,0.1,0.2,0.2,0.3,0.4c0.1,0.1,0.2,0.2,0.3,0.4c0.1,0.1,0.1,0.2,0.1,0.3c0.2,0.4,0.3,0.8,0.3,1.1c0,0.5-0.4,1-1.3,1.5
			c0.1,0.3,0.6,0.4,1.4,0.5c1.5-1.2,2.2-2.5,2.1-3.8c0.1,0,0.2,0,0.3,0c0.2,0,0.6-0.2,1.1-0.7l0-0.1c0,0-0.1-0.1-0.3-0.3
			c0,0.1-0.2,0.2-0.4,0.2l-0.4,0l1-9.9C43.4,9,43.6,8.4,43.8,8c0.2-0.4,0.4-0.6,0.7-0.7c0.4-0.1,0.9-0.1,1.4-0.2
			c0.5-0.1,1.1-0.1,1.8-0.1c0.4,0,0.7,0,1.1,0.1c0.3,0,0.7,0.1,1,0.2c0.7,0.8,1.1,2.3,0.9,4.6c0.2,0.2,0.3,0.5,0.4,0.9
			c0.1,0.3,0.1,0.7,0.1,1.2c0,0.2,0,0.4,0,0.6c0,0.2,0,0.4-0.1,0.6c0.1,0.3,0.3,0.6,0.3,0.8c0.1,0.2,0.1,0.4,0.1,0.5
			c0,0,0,0.1,0,0.1s0,0.1,0,0.2l-0.2,0.2C51.2,17,51,17,50.8,17h-0.6l-0.5,0.5c0.1,0.2,0.6,0.4,1.3,0.5c0.6,0.1,0.9,0.3,0.9,0.7
			c0,0.1,0,0.1,0,0.2c0,0.1,0,0.1-0.1,0.2c0.1,0.5-0.1,0.9-0.4,1.2c0.1,0.2,0.3,0.3,0.4,0.4c0.1,0.1,0.3,0.3,0.4,0.4
			c0.1,0.1,0.1,0.5,0.1,1.2c0,0.6,0.3,1,0.8,1c0.1,0.2,0.2,0.3,0.3,0.3c0.1,0,0.1,0,0.2-0.1c0.1-0.1,0.2-0.1,0.3-0.2
			c0.1-0.1,0.2-0.1,0.2-0.2c0.1-0.1,0.1-0.1,0.2-0.1c0.1,0,0.2,0.1,0.3,0.2c0.2,0,0.3-0.1,0.3-0.3c0-0.1,0-0.2-0.1-0.3
			c-0.1-0.1-0.1-0.2-0.1-0.4c0-0.6,0-1.2,0.1-1.9c0.1-0.6,0.3-1.3,0.5-1.9l-0.2-0.3L56.5,8c0.2-0.3,0.6-0.6,1-0.7
			C58,7.2,58.5,7.1,59,7.1c0.2,0,0.7,0,1.6,0c0.7,0.1,1.3,0.1,1.6,0C62.9,7.5,63.2,8,63.3,8.7z M32.3,11.7c0,0-0.1-0.2-0.3-0.4
			l-0.2,0.2C32,11.7,32.2,11.8,32.3,11.7L32.3,11.7L32.3,11.7z M36.8,23.5c-0.1,0-0.1,0-0.2,0h-0.1c-0.1,0-0.1,0-0.2,0.1
			c-0.1,0-0.2,0.1-0.3,0.2c-0.1,0.1-0.2,0.1-0.2,0.2c-0.1,0-0.1,0.1-0.2,0.1c0.1,0.1,0.2,0.2,0.4,0.2h0.3c0.1-0.1,0.2-0.2,0.3-0.2
			c0.1-0.1,0.1-0.1,0.2-0.2C36.8,23.7,36.8,23.7,36.8,23.5L36.8,23.5z M36.5,32.4h-0.2l0.2,0.2V32.4z M37,35.7h-0.5l0.5,0.2V35.7z
			 M37.4,17.1H37v0.4h0.3V17.1z M38,22.1c-0.1-0.1-0.2-0.2-0.4-0.2h-0.1h-0.2l0.5,0.5L38,22.1z M38.2,24.2l-0.7,0.7
			c0.1,0,0.1,0,0.2,0h0c0.1,0,0.3-0.2,0.7-0.5L38.2,24.2z M38.2,20.7L38,20.9l0.5,0.5l0.2-0.2L38.2,20.7z M38.2,30.6L38,30.8
			l0.2,0.2l0.3-0.2L38.2,30.6z M38.9,28.5c0-0.2-0.1-0.3-0.3-0.3c-0.2,0-0.3,0.1-0.4,0.3l0.3,0.2h0.1C38.6,28.7,38.7,28.6,38.9,28.5
			z M39.4,29.6l-0.3,0.2l0.3,0.3l0.2-0.3L39.4,29.6z M40,26.1c-0.2-0.2-0.3-0.3-0.3-0.3c-0.2,0-0.3,0.2-0.3,0.5
			c0,0.2,0.1,0.4,0.3,0.5c0.1-0.1,0.2-0.2,0.3-0.2c0.1-0.1,0.1-0.1,0.1-0.2C40.1,26.3,40.1,26.2,40,26.1L40,26.1z M40.3,28
			c-0.1,0-0.1,0-0.2,0h-0.1c-0.1,0-0.3,0.2-0.7,0.5c0.1,0.2,0.2,0.2,0.4,0.2H40c0.2-0.1,0.3-0.2,0.3-0.4V28z M40.4,30H40v0.4h0.4V30
			z M40.5,25.4v0.3l0.3-0.3H40.5z M41,32.2L41,32.2c-0.1,0-0.2,0.1-0.5,0.3H41V32.2z M41.2,26.7h-0.4V27h0.4V26.7z M41.5,24.9
			c0-0.1-0.1-0.2-0.2-0.4L41,24.7l0.3,0.3L41.5,24.9L41.5,24.9z M42.5,28.7L41,29.4l0.3,0.3c0-0.3,0.2-0.4,0.6-0.4
			c0.4,0,0.6-0.2,0.6-0.3L42.5,28.7z M43.3,30.8c-0.5-0.2-0.9-0.3-1.1-0.3c-0.3,0-0.7,0.1-1.2,0.3v0.1c0,0,0.1,0.2,0.3,0.4
			c0.3-0.2,0.7-0.3,1-0.3c0.3-0.1,0.7-0.1,0.9-0.1H43.3z M41.8,33.7h-0.3v0.3h0.3V33.7z M42.4,27.5c-0.1-0.2-0.2-0.3-0.3-0.3
			c-0.2,0-0.3,0.1-0.4,0.3l0.3,0.2l0,0C42.1,27.8,42.2,27.7,42.4,27.5z M44.8,23.1c-0.2-0.3-0.4-0.5-0.6-0.5c-0.1,0-0.1,0-0.2,0.1
			c-0.1,0.1-0.2,0.2-0.3,0.3c-0.1,0.1-0.2,0.2-0.3,0.3c-0.1,0.1-0.2,0.1-0.3,0.1c-0.1,0-0.2,0-0.4-0.1c0,0,0,0.1-0.1,0.1
			c0,0-0.1,0.1-0.2,0.1c-0.1,0.1-0.1,0.1-0.1,0.2c0,0.1-0.1,0.1-0.1,0.2V24h0.4c0.1-0.2,0.2-0.3,0.3-0.4c0.1-0.1,0.3-0.1,0.5-0.1
			C44.2,23.5,44.6,23.4,44.8,23.1z M42.6,33.3l-0.2-0.4l-0.2,0.2l0.3,0.3L42.6,33.3L42.6,33.3z M43.6,24.9c-0.1-0.2-0.3-0.3-0.7-0.3
			c-0.3,0-0.5,0.1-0.5,0.4c0,0.2,0.1,0.3,0.3,0.3c0.4,0,0.6,0,0.6,0c0.2-0.2,0.3-0.3,0.3-0.4V24.9z M43.9,17.6c0,0,0-0.1-0.1-0.2
			c0-0.1-0.1-0.1-0.2-0.2l-0.5,0.4l0.2,0.3h0.1C43.5,17.9,43.6,17.8,43.9,17.6L43.9,17.6z M45.4,27.5c-0.2-0.3-0.6-0.5-1.1-0.5
			c-0.5,0-0.9,0.2-1,0.5c0.3,0.2,0.7,0.3,1.1,0.3C44.8,27.8,45.1,27.7,45.4,27.5z M44.3,25.7c-0.3,0.1-0.4,0.3-0.4,0.5
			s0.1,0.3,0.3,0.3c0.3,0,0.5-0.1,0.6-0.3L44.3,25.7z M44.3,30.3c0-0.1,0-0.1,0-0.2c0,0-0.1-0.1-0.2-0.3c-0.1,0.1-0.2,0.2-0.2,0.4
			c0,0.2,0.1,0.3,0.2,0.4L44.3,30.3L44.3,30.3z M45,13h-0.9l0.9,0.2V13z M44.5,21.7c-0.2-0.2-0.3-0.3-0.3-0.3h-0.1l0.4,0.5V21.7z
			 M45.9,18.1h-0.7c-0.2,0-0.3,0.1-0.4,0.3c0.1,0.1,0.4,0.2,0.9,0.4c0.1,0,0.1-0.1,0.2-0.2c0-0.1,0-0.2,0-0.3V18.1z M46.9,22.4
			c-0.2-0.2-0.5-0.3-0.9-0.3h-1l0.5,0.7H46C46.4,22.8,46.7,22.7,46.9,22.4z M46.4,25.3c0-0.1-0.1-0.3-0.2-0.3
			c-0.2-0.2-0.3-0.3-0.3-0.3l-0.2,0.5c0.1,0.2,0.2,0.2,0.4,0.2h0.2L46.4,25.3L46.4,25.3z M46.7,20.9c-0.1-0.1-0.2-0.2-0.4-0.2
			c-0.2,0-0.3,0.1-0.3,0.2l0.2,0.3h0.1C46.3,21.2,46.4,21.1,46.7,20.9z M46.7,12.6h-0.3V13h0.3V12.6z M46.7,17.1h-0.3v0.4h0.3V17.1z
			 M47,18.7h-0.3v0.4H47V18.7z M47.1,13.2l1.2,1l0.3-0.2L47.1,13.2z M49.4,23.1c-0.2-0.2-0.4-0.3-0.7-0.3c-0.3,0-0.5,0.1-0.8,0.2
			c-0.3,0.2-0.6,0.4-0.8,0.8c0.1,0.1,0.3,0.1,0.5,0.1c0.1,0,0.3,0,0.4-0.1c0.2-0.1,0.3-0.2,0.5-0.3c0.2-0.1,0.3-0.2,0.5-0.3
			C49.1,23.1,49.3,23,49.4,23.1L49.4,23.1z M48.3,20.2c-0.2-0.2-0.3-0.2-0.3-0.2c-0.2,0-0.3,0.1-0.3,0.4c0,0.2,0.1,0.3,0.2,0.4
			L48.3,20.2z M48.5,19.2c0-0.1-0.1-0.2-0.3-0.4l-0.5,0.5l0.3,0.3h0C48.1,19.6,48.3,19.5,48.5,19.2L48.5,19.2z M49.3,25.7
			c-0.1-0.2-0.3-0.3-0.6-0.3H48c-0.2,0.1-0.3,0.2-0.3,0.5c0,0.3,0.2,0.5,0.5,0.5C48.8,26.4,49.1,26.1,49.3,25.7z M48.4,16.8H48v0.4
			h0.4V16.8z M49.4,28.9c-0.3,0-0.5,0.1-0.5,0.4v0c0.2,0.2,0.3,0.3,0.4,0.3h0l0.3-0.3C49.7,29,49.6,28.9,49.4,28.9z M51.6,21.9
			c-0.1,0-0.2-0.1-0.3-0.1c-0.1,0-0.4-0.1-0.7-0.2c-0.2-0.1-0.3-0.1-0.5-0.2c-0.2,0-0.3-0.1-0.5-0.1c-0.1,0-0.1,0-0.2,0
			c-0.1,0-0.1,0-0.2,0l0.7,0.7c0.1,0,0.1,0,0.2-0.1c0,0,0.1,0,0.1,0c0.1,0,0.2,0.1,0.4,0.2c0.2,0.1,0.4,0.2,0.5,0.2
			C51.3,22.4,51.4,22.2,51.6,21.9z M50.4,20.7c-0.1-0.2-0.2-0.3-0.3-0.3c-0.2,0-0.3,0.1-0.3,0.3l0.2,0.2l0.1,0
			C50,21,50.2,20.9,50.4,20.7z M50.4,30.8c-0.2-0.2-0.3-0.3-0.3-0.3l-0.1,0l0.3,0.4L50.4,30.8z M51.1,24c-0.1-0.2-0.2-0.3-0.4-0.3
			h-0.1h-0.2l0.5,0.5L51.1,24z M51.3,31.7c-0.1-0.1-0.2-0.2-0.2-0.3c-0.1-0.1-0.1-0.1-0.2-0.2c-0.1,0-0.1-0.1-0.2-0.1l-0.1,0
			c0,0.1,0,0.1,0,0.2v0c0,0.4,0.2,0.5,0.6,0.5c0,0,0.1,0,0.1,0c0,0,0.1,0,0.1,0V31.7z M52.2,29.4c-0.1,0-0.1,0-0.1,0
			c-0.1,0-0.1,0-0.1,0c-0.2,0-0.4,0.1-0.7,0.2c-0.2,0.1-0.3,0.2-0.4,0.2c-0.1,0-0.2,0.1-0.2,0.1c0.1,0.2,0.3,0.3,0.6,0.3h0.6
			c0,0,0.1-0.1,0.1-0.1c0.1,0,0.1-0.1,0.2-0.2c0.1,0,0.1-0.1,0.1-0.2c0-0.1,0.1-0.1,0.1-0.2L52.2,29.4z M51.6,24.9
			c0-0.2-0.1-0.2-0.3-0.2c-0.2,0-0.3,0.1-0.4,0.2l0.3,0.2h0.1C51.2,25.2,51.4,25.1,51.6,24.9z M52.2,26.3c0.1-0.2,0-0.4-0.2-0.5
			c0,0.1-0.1,0.3-0.2,0.4c-0.1,0.1-0.3,0.2-0.4,0.3c-0.1,0.1-0.3,0.1-0.4,0.2c-0.1,0.1-0.2,0.1-0.2,0.1C51,27,51.1,27,51.3,27
			c0.1,0,0.1,0,0.2-0.1c0.1,0,0.2-0.1,0.3-0.2c0.1,0,0.2-0.1,0.3-0.2c0.1-0.1,0.2-0.1,0.2-0.1V26.3z M52.2,33.8
			c-0.1-0.1-0.2-0.2-0.3-0.2c-0.1,0-0.1,0-0.2,0.1c-0.1,0-0.2,0.1-0.3,0.2c-0.1,0.1-0.2,0.1-0.2,0.2s-0.1,0.1-0.2,0.1l0.2,0.2l0.1,0
			h0C51.7,34.3,51.9,34.2,52.2,33.8z M52.3,23.6c0-0.2-0.1-0.3-0.4-0.3c-0.2,0-0.3,0.1-0.3,0.2l0.5,0.5
			C52.2,23.8,52.3,23.6,52.3,23.6z M53.2,31c0-0.1-0.2-0.2-0.4-0.2h-0.6c-0.1,0-0.2,0.1-0.2,0.3c0,0.3,0.1,0.4,0.4,0.4
			C52.6,31.5,52.8,31.4,53.2,31z M52.7,35l-0.3,0c-0.2,0-0.3,0.1-0.4,0.3l0.3,0.3l0.1,0C52.6,35.3,52.7,35.2,52.7,35L52.7,35z
			 M55.4,26.9c0,0,0-0.1-0.1-0.2c-0.1-0.1-0.1-0.2-0.2-0.3S55,26.2,55,26.1c-0.1-0.1-0.1-0.2-0.1-0.2c-0.1,0.3-0.4,0.5-0.7,0.5
			c-0.5,0-0.8,0.1-0.9,0.2l0.7,0.5L53,27.5c0.3,0.2,0.6,0.3,1,0.3c0.5,0,0.8-0.1,1-0.2S55.4,27.2,55.4,26.9z M53.7,34.1
			c-0.2-0.2-0.3-0.3-0.4-0.3h-0.1l0.2,0.5L53.7,34.1z M53.7,30.1h-0.3l0.7,0.5L53.7,30.1z M53.8,37.5h-0.4v0.4h0.4V37.5z M54.1,24.5
			v0.2l0.2-0.2H54.1z M54.6,32h-0.2l0.2,0.2V32z M55.1,34.1c0-0.2-0.1-0.3-0.3-0.3c-0.2,0-0.3,0.1-0.4,0.3c0.1,0.1,0.3,0.2,0.4,0.2
			h0.3V34.1z M54.6,27v-0.4H55V27H54.6z M55.3,28.9h-0.3l0.3,0.2V28.9z M55.7,24.1h-0.4v0.4h0.4V24.1z M56.4,20.6H56v0.3h0.3V20.6z
			 M56.2,27.7V28l0.3-0.3H56.2z M57,12.4h-0.3v0.4H57V12.4z M57.5,29.2h-0.3c-0.2,0-0.4,0.1-0.5,0.2c0.2,0.2,0.3,0.3,0.4,0.3h0.1
			l0.3-0.3V29.2z M57.6,21.9l-0.2,0.2l0.2,0.3l0.2-0.3L57.6,21.9z M57.8,25.7h-0.3v0.4h0.3V25.7z M58.3,33.7h-0.4v0.3h0.4V33.7z
			 M60.3,17.6H60v0.3h0.3V17.6z"/>
		<path class="st11" d="M120.6,40.6c-0.1,0.3-0.1,0.5-0.2,0.8c-0.1,0.3-0.2,0.5-0.3,0.7c-0.1,0.2-0.3,0.4-0.5,0.5
			c-0.2,0.1-0.4,0.2-0.7,0.1c-0.2-0.1-0.5-0.2-0.7-0.3c-0.2-0.1-0.5-0.1-0.8-0.1c-0.1,0-0.3,0-0.6,0c-0.2,0-0.5,0-0.8,0
			c-0.3,0-0.5,0-0.8,0c-0.2,0-0.4-0.1-0.6-0.1c-0.6-0.1-1.1-0.3-1.7-0.7c-0.3-0.7-0.5-1.4-0.6-2.1c-0.1-0.7-0.1-1.4,0-2.1
			c0-0.1-0.1-0.5-0.2-1.2c-0.1-0.7-0.3-1.7-0.5-3.1c-0.1-1.4-0.2-2.5-0.4-3.4c-0.1-0.9-0.2-1.4-0.3-1.6c0.1,0.1,0.3,0.1,0.5,0.1
			c1,0.2,1.7-0.1,2.2-0.7c0-0.1-0.1-0.1-0.2-0.2c-0.1-0.1-0.2-0.1-0.3-0.1l-0.8-0.1c-0.1,0.2-0.3,0.4-0.5,0.3c-0.1,0-0.1,0-0.2-0.1
			c-0.1,0-0.2-0.1-0.2-0.1c-0.1-0.1-0.2-0.1-0.2-0.2c-0.1-0.1-0.1-0.1-0.2-0.1c-0.2,0-0.4,0.1-0.5,0.4l-0.3-0.3
			c-0.5,0.1-0.9,0.5-1.1,1.2c-0.2,0.7-0.5,1.1-0.9,1.3c0.3,0.3,0.4,0.6,0.3,0.8c0,0.1-0.1,0.3-0.2,0.6c-0.1,0.3-0.2,0.5-0.2,0.7
			c0,0.1,0,0.3,0,0.4s0.2,0.3,0.3,0.5c0-0.2,0,0-0.1,0.7c-0.1,0.7-0.3,1.8-0.5,3.5c-0.2,0.8-0.3,1.5-0.4,2.1
			c-0.1,0.6-0.3,1.2-0.5,1.7c-0.3,0.2-0.6,0.3-1,0.3s-0.9,0-1.4,0c-1.1-0.2-1.9-0.3-2.4-0.4c-0.5-0.1-0.7-0.1-0.6-0.1
			c-0.9-0.5-1.2-1.2-1.1-2.2c0.1-0.4,0.2-0.7,0.4-0.9l-0.3-0.4c0.3-1.6,0.5-2.9,0.8-4.2c0.2-1.2,0.4-2.2,0.6-3.1
			c0.1-0.9,0.3-1.6,0.4-2.2c0.1-0.6,0.2-1,0.3-1.3c0.1-0.5,0.2-0.7,0.4-0.9c0-0.9,0.1-1.9,0.2-2.9c0.1-1,0.3-2.1,0.5-3.2l0.7-5.4
			l0.2-0.3l0.4-5.8c0.5-0.9,1.1-1.2,1.8-1.1c0.2,0,0.4,0.1,0.5,0.2c0,0,0.2,0.1,0.5,0.1s1,0.2,1.9,0.3c0.4,0.1,0.8,0.1,1.1,0.1
			c0.3,0,0.6,0,0.9,0c0.4,0.4,0.8,0.9,1.1,1.4c0.3,0.6,0.5,1.3,0.6,2c0,0.7,0.1,1.3,0.2,2c0.1,0.7,0.2,1.3,0.3,2
			c0.1,0.6,0.2,1.1,0.3,1.6s0.2,0.9,0.2,1.4c-0.3-0.4-0.5-0.6-0.7-0.6l-0.1,0c0,0-0.1,0-0.1,0l-0.6,0.4c0.1,0.2,0.2,0.4,0.4,0.5
			c0.2,0.2,0.4,0.3,0.6,0.5c0.4,0.3,0.6,0.8,0.8,1.4c0,0.3,0.2,0.5,0.4,0.6s0.6,0.3,1,0.3l0.7,0.1c0.2-0.1,0.3-0.2,0.5-0.4
			c0.2-0.1,0.3-0.3,0.3-0.5c-0.1-0.2-0.2-0.3-0.5-0.3l-0.2,0l-0.3,0.3c0.1-0.4,0.3-0.9,0.4-1.4c0.1-0.5,0.2-1,0.3-1.5
			c0.1-0.7,0.2-1.7,0.3-3.1c0-0.7,0.1-1.3,0.1-1.8c0-0.5,0.1-1,0.1-1.3c0.1-0.4,0.1-0.7,0.2-1c0.1-0.3,0.1-0.5,0.2-0.7
			c0-0.1,0.1-0.2,0.2-0.3c0.1-0.1,0.2-0.1,0.4-0.2c0.2,0,0.3-0.1,0.5-0.1c0.1,0,0.3-0.1,0.5-0.1c0.4,0.2,0.8,0.4,1.4,0.5
			c0.1,0,0.2,0,0.4,0c0.2,0,0.4,0,0.6,0c0.2,0,0.4,0,0.6,0.1s0.3,0,0.5,0c0.6,0.1,1,0.3,1.3,0.6c0.2,0.3,0.4,0.8,0.3,1.4
			c-0.2,0-0.3,0.1-0.3,0.2c0,0,0,0.1,0,0.1s0,0.1,0,0.2c0,0.1,0,0.1-0.1,0.2c0,0.1-0.1,0.1-0.2,0.2c-0.5,3.1-0.9,5.9-1.3,8.2
			c-0.4,2.3-0.6,4.2-0.9,5.7c-0.2,1.5-0.4,2.6-0.5,3.3s-0.1,1.1-0.1,1c-0.1,0-0.2,1-0.4,2.8C121.2,34.4,121,37,120.6,40.6
			L120.6,40.6z M105,15.7l-0.3,0l-0.1,0.3l0.3,0L105,15.7z M103.3,33.2l-0.7-0.1l0.6,0.4L103.3,33.2z M108,9.8
			c-0.1-0.2-0.3-0.3-0.5-0.3c-0.3,0-0.5,0-0.7,0.2l0.2,0.3l0.6,0.1C107.7,10,107.9,9.9,108,9.8z M106.1,23.9l-0.6,0.4l0.2,0
			c0.3,0,0.5,0,0.6-0.2L106.1,23.9z M105.5,26.6c0.1,0.6,0.3,1,0.9,1c0.2,0,0.4,0,0.5-0.1L105.5,26.6z M107.2,21.6
			c-0.1-0.2-0.2-0.3-0.3-0.3c-0.1,0-0.2,0.1-0.3,0.2l0.2,0.2l0,0.1C106.8,21.8,107,21.8,107.2,21.6z M105.7,31.5
			c-0.1-0.2-0.2-0.3-0.3-0.3c-0.1,0-0.2,0.1-0.3,0.2l0.2,0.3l0,0C105.4,31.7,105.5,31.6,105.7,31.5z M108.6,18.5
			c-0.2-0.2-0.3-0.3-0.5-0.4c-0.3,0-0.6,0.1-0.9,0.4c0.1-0.2,0.2-0.2,0.3-0.2c0.1,0,0.2,0.1,0.3,0.2c0.1,0.1,0.3,0.2,0.3,0.2
			C108.3,18.7,108.5,18.6,108.6,18.5z M107.2,23.3l-0.6,0.4l0.2,0.3l0.6-0.4L107.2,23.3z M108.7,13.2l0,0.2l0.3-0.2L108.7,13.2z
			 M108.7,19.7c0-0.2-0.1-0.3-0.3-0.3c-0.2,0-0.3,0-0.3,0.2l0.1,0.2l0.1,0c0,0,0.1,0,0.2,0C108.5,19.8,108.6,19.7,108.7,19.7z
			 M109.1,25c0-0.1,0-0.2,0-0.2c0-0.1,0-0.1,0-0.2c-0.1,0.4-0.4,0.6-0.9,0.7c-0.6,0.1-0.9,0.4-1.1,0.6l0.4,0.5
			c0.2-0.1,0.4-0.1,0.6-0.2c0.2-0.1,0.4-0.2,0.5-0.3c0.2-0.1,0.3-0.2,0.4-0.4C109,25.4,109.1,25.2,109.1,25z M110.7,22.3
			c-0.1,0-0.1-0.1-0.2-0.1c-0.1,0-0.1,0-0.2,0c-0.2,0-0.4,0-0.6,0c-0.2,0-0.4,0-0.7,0.1c-0.3,0-0.6,0.1-0.8,0.1c-0.2,0-0.4,0-0.4,0
			c0.1,0,0.2,0.1,0.4,0.2c0.2,0.1,0.3,0.2,0.5,0.2c0.2,0.1,0.3,0.1,0.5,0.2c0.2,0.1,0.3,0.1,0.4,0.1c0.4,0.1,0.7,0,1-0.3L110.7,22.3
			z M109.1,16.9l-0.3,0l0.2,0.3L109.1,16.9z M108.4,24.4c-0.1-0.2-0.2-0.3-0.3-0.3l-0.1,0l-0.2,0l0.4,0.5L108.4,24.4z M110,13.9
			c-0.1-0.1-0.2-0.2-0.2-0.2c0,0,0-0.1-0.1-0.1l-0.1,0l0.1,0.5L110,13.9z M108.8,20.8l-0.3,0l-0.1,0.3l0.3,0L108.8,20.8z
			 M111.1,19.1c-0.1,0-0.1-0.1-0.2-0.1l-0.1,0c-0.1,0-0.2,0-0.3,0c-0.1,0-0.3,0-0.5,0.1c-0.2,0.1-0.4,0.1-0.6,0.2
			c-0.1,0-0.2,0-0.3,0.1l0.2,0.2c0,0,0.1,0,0.3,0c0.2,0,0.4,0,0.7-0.1C110.7,19.5,111,19.4,111.1,19.1z M111.3,18.2
			c-0.1-0.2-0.2-0.3-0.4-0.3c-0.1,0-0.2,0-0.3,0c-0.1,0-0.2,0.1-0.4,0.1c-0.1,0-0.2,0.1-0.3,0.1c-0.1,0-0.2,0.1-0.3,0
			c0,0,0.2,0.1,0.8,0.2C110.8,18.3,111.1,18.3,111.3,18.2z M110.5,16.6C110.5,16.6,110.5,16.6,110.5,16.6c-0.1-0.1-0.1-0.1-0.2-0.1
			c-0.3-0.1-0.5,0.1-0.6,0.4c0,0.1,0.1,0.3,0.3,0.3c0.1-0.1,0.2-0.2,0.3-0.2C110.4,16.9,110.5,16.8,110.5,16.6L110.5,16.6z
			 M108.6,28c-0.1-0.2-0.2-0.3-0.3-0.3l-0.2,0l0.4,0.5L108.6,28z M111.5,15.1c0-0.2-0.2-0.3-0.4-0.4c-0.2,0-0.4,0-0.5,0.2l0.2,0.2
			l0.2,0C111.2,15.2,111.4,15.2,111.5,15.1z M112.6,20.3c-0.3-0.4-0.5-0.6-0.6-0.6c-0.3,0-0.4,0.1-0.5,0.3c0,0.2,0,0.3,0.2,0.4
			c-0.1,0.1-0.2,0.1-0.3,0.1c-0.1,0-0.3,0-0.4,0c-0.2,0-0.4,0-0.6,0s-0.3,0.1-0.4,0.1c0.1,0,0.2,0.1,0.3,0.1
			c0.1,0.1,0.2,0.1,0.3,0.2c0.1,0.1,0.2,0.1,0.4,0.2s0.2,0.1,0.3,0.1c0.2,0,0.4,0,0.6-0.2l-0.4-0.5L112.6,20.3z M111.7,13.7
			l-0.3-0.3l-0.2,0l0.2,0.5L111.7,13.7z M112.2,11l-0.3,0l-0.1,0.3l0.3,0L112.2,11z M112.1,16.1c-0.1-0.2-0.2-0.3-0.3-0.3
			c-0.1,0-0.3,0.2-0.7,0.6c0,0.2,0.1,0.3,0.3,0.3l0.3,0.1c0.2-0.1,0.3-0.2,0.3-0.4L112.1,16.1z M113.9,23.1
			c-0.2-0.3-0.5-0.5-0.8-0.6c-0.2,0-0.4,0-0.6,0.1c-0.2,0.1-0.5,0.2-0.8,0.3c-0.4,0.3-0.8,0.4-1,0.6c-0.2,0.1-0.4,0.2-0.4,0.2
			c0.1,0.2,0.2,0.3,0.5,0.3l0.2,0c0.3-0.3,0.7-0.5,1.4-0.6c0.4-0.1,0.7-0.1,1-0.2C113.6,23.2,113.8,23.2,113.9,23.1z M110.6,24.9
			l-0.2-0.4l-0.3,0.2c0.2,0.2,0.3,0.3,0.3,0.3L110.6,24.9L110.6,24.9z M112.3,18c0,0-0.1-0.2-0.2-0.4l-0.2,0.2l0.3,0.3L112.3,18
			L112.3,18z M111.3,26.5c0-0.1-0.2-0.2-0.4-0.3c-0.2,0-0.3,0-0.3,0.2l0.1,0.3l0.1,0C110.9,26.7,111,26.6,111.3,26.5z M112.9,21.7
			c0-0.1-0.1-0.2-0.2-0.5l-1.3,0.8l0.2,0.3c0.1-0.1,0.2-0.1,0.3-0.2c0.1-0.1,0.2-0.1,0.4-0.1c0.1,0,0.2-0.1,0.4-0.1
			C112.8,21.8,112.9,21.8,112.9,21.7L112.9,21.7z M112.6,15.7l0,0.2l0.3-0.2L112.6,15.7z M113.1,18.9l-0.5,0.4l0.4,0.5l0.5-0.4
			L113.1,18.9z M113.1,25.5c0-0.2-0.1-0.4-0.4-0.4c-0.3,0-0.5,0.1-0.8,0.4c0,0.2,0.2,0.3,0.4,0.3c0.4,0.1,0.5,0.1,0.5,0
			C113,25.6,113.1,25.5,113.1,25.5z M112.7,29.6c-0.1,0-0.2-0.1-0.3-0.1c-0.1-0.1-0.2-0.2-0.2-0.3c-0.1-0.1-0.1-0.2-0.2-0.2
			c-0.1-0.1-0.1-0.1-0.1-0.1c-0.1,0-0.2,0-0.3,0.1l0.8,0.9L112.7,29.6z M114.9,24.2c-0.1-0.2-0.2-0.3-0.3-0.3c-0.1,0-0.2,0-0.3,0.1
			c-0.1,0.1-0.2,0.2-0.3,0.3c-0.1,0.1-0.2,0.2-0.3,0.3c-0.1,0.1-0.2,0.2-0.2,0.2l0.1,0.2L114.9,24.2z M114.2,26.4
			c0-0.2-0.1-0.4-0.3-0.4c-0.3,0-0.4,0.1-0.5,0.3l0,0c0.2,0.2,0.3,0.3,0.3,0.3l0.1,0C114.1,26.5,114.2,26.4,114.2,26.4z M113.4,31.6
			c-0.1-0.2-0.2-0.3-0.3-0.3c-0.3,0-0.4,0.1-0.5,0.5c0,0,0,0.1,0,0.1c0,0,0,0.1,0,0.1L113.4,31.6z M115.1,21.6
			c0-0.2-0.1-0.2-0.3-0.3c-0.2,0-0.3,0-0.4,0.2l0.2,0.3l0.1,0C114.7,21.8,114.9,21.7,115.1,21.6z M115.5,28.6
			c-0.2-0.2-0.4-0.3-0.6-0.3c-0.7-0.1-1.1,0.2-1.4,0.7c0.1-0.1,0.2-0.1,0.4-0.2c0.2,0,0.4-0.1,0.6-0.1c0.2,0,0.4-0.1,0.6-0.1
			C115.3,28.6,115.4,28.6,115.5,28.6z M115.9,30.6c-0.2-0.2-0.4-0.3-0.6-0.4c-0.2-0.1-0.4-0.2-0.7-0.2c-0.5-0.1-0.9,0-1.3,0.2
			c0.2,0.3,0.4,0.5,0.7,0.6c0.1,0,0.2,0,0.4,0c0.2,0,0.3-0.1,0.5-0.1s0.4-0.1,0.6-0.1C115.7,30.5,115.8,30.5,115.9,30.6z
			 M113.6,33.3L113.6,33.3c-0.1,0-0.2,0-0.5,0.2l0.1,0.2c0.2-0.2,0.3-0.3,0.3-0.3L113.6,33.3z M115.5,20.4l-0.3,0.2l0.2,0.2l0.2-0.2
			L115.5,20.4z M115.3,22.2l-0.3-0.1l-0.1,0.3l0.3,0.1L115.3,22.2z M115.5,27c0-0.1,0-0.1,0-0.1c0,0,0-0.1,0-0.2
			c-0.1-0.2-0.3-0.3-0.3-0.3c0,0-0.1,0-0.2,0.1c-0.1,0.1-0.2,0.2-0.2,0.3c-0.1,0.1-0.2,0.2-0.3,0.3c-0.1,0.1-0.2,0.1-0.3,0.1
			l0.2,0.3c0,0,0.1-0.1,0.2-0.1c0.1,0,0.2-0.1,0.4-0.1c0.1,0,0.2-0.1,0.3-0.1C115.5,27.1,115.5,27,115.5,27z M117.8,22.4
			c-0.2,0.4-0.7,0.7-1.3,0.7c-0.4,0-0.6,0.1-0.8,0.1c-0.2,0.1-0.3,0.1-0.5,0.2c0.1,0,0.2,0.1,0.2,0.1c0.1,0,0.1,0,0.2,0
			c0.2,0,0.4,0,0.6,0c0.2,0,0.5-0.1,0.8-0.1l1.4-0.5L117.8,22.4z M116.2,22l-0.5,0.4l0.2,0c0.2-0.2,0.3-0.3,0.3-0.3L116.2,22z
			 M115.1,32.8c-0.1-0.2-0.2-0.3-0.4-0.3c-0.1,0-0.3,0.1-0.4,0.2l0.2,0.3l0,0C114.7,33,114.9,33,115.1,32.8z M117,24.7
			c-0.1-0.2-0.3-0.3-0.6-0.4c-0.3-0.1-0.5,0.1-0.6,0.4c0,0.2,0.1,0.3,0.3,0.3l0.6,0.1c0.1-0.1,0.2-0.2,0.2-0.2c0,0,0.1-0.1,0.1-0.1
			L117,24.7z M116.2,25.7l-0.3,0l-0.1,0.4l0.3,0L116.2,25.7z M115,34.1l-0.3,0l-0.1,0.3l0.3,0L115,34.1z M117.3,20.6l-0.3,0
			l-0.1,0.4l0.3,0L117.3,20.6z M118.3,15.2l-0.3-0.1l-0.1,0.4l0.3,0.1L118.3,15.2z M116,28.2l0,0.3l0.3-0.2L116,28.2z M118.4,17.3
			c0-0.2,0-0.4-0.1-0.5c-0.2,0.2-0.4,0.4-0.4,0.5c-0.1,0.1-0.1,0.1-0.1,0.1c0,0.2,0,0.3,0.2,0.3c0.1,0,0.3,0,0.5-0.2L118.4,17.3z
			 M118.5,27.6c0-0.5-0.3-0.8-1-0.9c-0.7-0.1-1.1,0.1-1.1,0.5l0,0.1c0.2,0.2,0.6,0.4,1,0.5c0.2,0,0.4,0,0.6,0
			C118.2,27.7,118.4,27.7,118.5,27.6z M116.9,30.1c0-0.1-0.1-0.2-0.2-0.4l-0.5,0.4l0.2,0.3l0,0C116.5,30.4,116.7,30.4,116.9,30.1
			L116.9,30.1z M117.6,25.5l-0.5,0.4l0.2,0c0.3,0,0.5,0,0.6-0.2L117.6,25.5z M118.5,21.6c-0.1-0.1-0.2-0.2-0.2-0.2
			c-0.1-0.1-0.1-0.1-0.1-0.1l-0.1,0l0.1,0.5L118.5,21.6z M115.7,38l-0.2,0.2l0.2,0.3l0.3-0.2L115.7,38z M117.7,31.3
			c-0.1-0.1-0.1-0.2-0.2-0.3c-0.1-0.1-0.2-0.2-0.2-0.2c-0.3,0-0.4,0.1-0.5,0.3c0,0.2,0.1,0.3,0.3,0.4l0.2,0.1
			C117.5,31.5,117.6,31.5,117.7,31.3z M116.9,34c0,0,0-0.2-0.2-0.4l-0.3,0.2c0.2,0.2,0.3,0.3,0.4,0.3L116.9,34L116.9,34z
			 M117.1,35.5l-0.3-0.1c-0.2,0-0.3,0-0.4,0.2l0.3,0.3l0.1,0c0.2-0.2,0.3-0.2,0.3-0.3L117.1,35.5z M120.3,18.5
			c-0.1-0.2-0.2-0.3-0.4-0.3c-0.3,0-0.4,0-0.5,0.2l0.4,0.6L120.3,18.5z M120,22.6c0-0.2-0.1-0.4-0.5-0.4c-0.2,0-0.4,0-0.5,0.2
			c0,0,0.1,0,0.1,0.1c0,0.1,0.1,0.1,0.1,0.2c0.1,0.1,0.1,0.1,0.2,0.2c0,0.1,0.1,0.1,0.2,0.1l0.1,0C119.9,22.8,120,22.7,120,22.6z
			 M119,29.1c0-0.2-0.1-0.3-0.3-0.3c-0.2,0-0.3,0.1-0.3,0.2l0.1,0.3l0.1,0C118.6,29.3,118.7,29.2,119,29.1z M119.1,31.7L119.1,31.7
			c-0.3-0.1-0.5,0.1-0.5,0.3l0,0.1l0.3,0c0.2-0.2,0.3-0.2,0.3-0.3L119.1,31.7z M121.2,23.7l0.2,0.2l0.3-0.2L121.2,23.7z M121.4,25.9
			l-0.3,0.4l0,0c0.1,0,0.1,0,0.2,0c0.1,0,0.2-0.1,0.3-0.1L121.4,25.9z"/>
		<path class="st12" d="M154.1,25.5c-0.1,0.3-0.2,0.7-0.2,1.1c0,0.4,0,1,0.1,1.6c0.1,1.2,0.1,2.1-0.1,2.7c0.1,0.2,0.1,0.4,0.2,0.5
			c0,0.2,0.1,0.4,0.1,0.6c0,0.4,0,0.8-0.1,1.2c-0.1,0.4-0.3,0.8-0.5,1.3l0.1,1.4c-0.3,0-0.5,0.3-0.7,0.7c0,0.3-0.1,0.6-0.1,0.7
			c-0.1,0.2-0.1,0.3-0.2,0.4c-0.7,1.2-1.6,2.2-2.7,2.9c-1.1,0.7-2.3,1.1-3.7,1.1c-0.4,0.3-0.9,0.5-1.5,0.5c-0.1,0-0.3,0-0.4,0
			c-0.2,0-0.4,0-0.6,0c-0.2,0-0.4,0-0.6,0c-0.2,0-0.3,0-0.4,0c-0.4,0-0.8,0.1-1,0.2l-0.5-0.5c-0.2,0.2-0.5,0.4-0.9,0.5
			c-0.4,0.1-0.8,0.2-1.3,0.2c-1,0-1.8,0-2.2,0c-0.4,0-0.6,0-0.5,0c-0.1-0.1-0.6-0.3-1.2-0.6c-0.4-0.2-0.7-0.5-0.7-1
			c0.2-0.1,0.3-0.2,0.2-0.3c0-0.1,0-0.2-0.1-0.3c-0.1-0.1-0.1-0.3-0.1-0.3c0-0.1,0-0.3,0-0.6c0-0.3,0-0.5,0-0.8c0-0.7,0-1.1,0.1-1.2
			c0-0.8,0-1.6-0.1-2.5c0-0.9-0.1-1.8-0.1-2.8c0-0.3,0-0.7,0-1.1c0-0.5,0-1-0.1-1.7l-0.1-2.7l-0.1-3.8c0-0.1,0-0.2,0-0.3
			c0-0.1,0-0.1,0-0.2l-0.7-12.8c0.1-0.2,0.2-0.4,0.3-0.5c0.1-0.2,0.3-0.3,0.5-0.5c0.2-0.1,0.4-0.2,0.7-0.3C134.8,8,135,8,135.2,8
			L145.8,8c0.6,0,1.3,0.1,1.9,0.4c0.6,0.2,1.3,0.6,1.9,1.2c0.7,0.5,1.2,1,1.6,1.5c0.4,0.6,0.6,1.1,0.8,1.7l0,0.3
			c0,0.1,0.1,0.2,0.2,0.3c0.1,0.1,0.2,0.2,0.3,0.3c0.1,0.1,0.2,0.2,0.3,0.3c0.1,0.1,0.2,0.3,0.2,0.4c0,0.1,0,0.3,0.1,0.6
			c0,0.2,0.1,0.5,0.1,0.7c0,0.2,0.1,0.4,0.1,0.6c0.1,0.2,0.1,0.3,0.1,0.4c-0.1,0,0,0.8,0.1,2.3C153.5,20.4,153.7,22.6,154.1,25.5
			L154.1,25.5z M134.7,24.8l-0.4,0l0,0.4l0.4,0L134.7,24.8z M136.5,23.3c-0.2,0-0.4,0.1-0.6,0.2c-0.2,0.1-0.4,0.2-0.7,0.3
			c0.1,0.1,0.3,0.2,0.5,0.2l0.2,0c0.1-0.1,0.2-0.2,0.3-0.3C136.4,23.6,136.5,23.4,136.5,23.3L136.5,23.3z M136.4,16.9l0,0.3l0.2-0.3
			L136.4,16.9z M137.7,19.9c-0.1-0.1-0.2-0.2-0.3-0.2c-0.1,0-0.3,0.1-0.5,0.2c-0.2,0.2-0.3,0.2-0.4,0.3l0.2,0.2c0.1,0,0.1,0,0.1,0
			c0,0,0.1,0,0.1,0C137.1,20.4,137.3,20.2,137.7,19.9z M138.9,32.2c0-0.3-0.3-0.5-0.8-0.5c-0.2,0-0.4,0.1-0.6,0.2
			c0,0,0.1,0.1,0.2,0.2c0.1,0.1,0.2,0.2,0.2,0.3c0.1,0.1,0.2,0.2,0.3,0.2c0.1,0.1,0.2,0.1,0.3,0.1l0,0c0,0,0.1,0,0.2-0.1
			C138.8,32.5,138.9,32.3,138.9,32.2z M137.9,34.9l-0.4,0l0,0.3l0.4,0L137.9,34.9z M137.8,28.4l-0.2,0.5l0.1,0l0.3-0.3L137.8,28.4z
			 M138.7,34.1c-0.1-0.2-0.3-0.2-0.5-0.2c-0.2,0-0.3,0.1-0.4,0.3l0.2,0.2l0.3,0C138.5,34.3,138.7,34.2,138.7,34.1z M138.9,37.8
			c-0.2-0.2-0.4-0.2-0.4-0.2l-0.1,0.1l0.3,0.5L138.9,37.8z M138.1,13.1l-0.3,0l0,0.3l0.3,0L138.1,13.1z M138.6,18.2
			c-0.2-0.2-0.3-0.2-0.4-0.2l-0.1,0l0.2,0.5L138.6,18.2z M139.8,36.6c0-0.1-0.1-0.2-0.1-0.2s-0.1-0.1-0.2-0.1
			c-0.1,0-0.2-0.1-0.2-0.1c-0.1,0-0.1-0.1-0.2-0.1l-0.2,0.5L139.8,36.6L139.8,36.6z M138.8,16.8l-0.3,0.3l0.5,0.4l0.2-0.2
			L138.8,16.8z M139,20.2l-0.4,0l0,0.4l0.4,0L139,20.2z M139.3,26.6l-0.4,0l0,0.3l0.4,0L139.3,26.6z M140.4,33.6
			c-0.1-0.2-0.2-0.3-0.4-0.2c-0.1,0-0.2,0.1-0.3,0.3l0.2,0.2l0.1,0C140,33.8,140.1,33.7,140.4,33.6z M140.8,19.8
			c-0.2-0.2-0.4-0.2-0.7-0.2c-0.4,0-0.5,0.2-0.5,0.5l0,0l0.7,0C140.5,20,140.7,19.9,140.8,19.8z M140.2,16.2
			c-0.1-0.2-0.2-0.2-0.4-0.2c-0.2,0-0.3,0.1-0.4,0.3l0.3,0.2l0.1,0C139.9,16.5,140,16.4,140.2,16.2z M140.6,31l-0.3,0l0,0.4l0.3,0
			L140.6,31z M141.2,37c0,0-0.1-0.2-0.2-0.4l-0.4,0.5l0.2,0.2l0.1,0C140.9,37.3,141,37.2,141.2,37L141.2,37z M141,14.3
			c-0.2-0.4-0.6-0.5-0.9-0.5l-0.2,0.1c0.1,0.2,0.2,0.3,0.4,0.4c0.2,0.1,0.3,0.1,0.5,0.1L141,14.3z M140.6,22.2l-0.1,0
			c0,0-0.1,0-0.1,0.1c0,0-0.1,0.1-0.2,0.2l0.2,0.3C140.5,22.4,140.6,22.3,140.6,22.2L140.6,22.2z M141.1,23.9l-0.4,0l0,0.3l0.4,0
			L141.1,23.9z M141.6,35.6c-0.2-0.2-0.3-0.2-0.4-0.2l-0.1,0l0.3,0.4L141.6,35.6z M146.4,31.4c-0.3-0.3-0.5-0.8-0.5-1.2
			c0-0.1,0-0.3,0-0.4c0-0.2,0-0.3,0.1-0.5c0-0.2,0-0.3,0.1-0.5c0-0.2,0-0.3,0-0.4l-0.2-0.3c0,0,0-0.1,0-0.1c0,0,0-0.1,0-0.1
			c0-0.1,0.2-0.4,0.4-0.8l-0.5-0.5c0-0.1,0-0.1,0.1-0.2c0-0.1,0-0.2,0-0.3c0-0.1,0-0.2,0-0.3c0-0.1,0-0.3-0.1-0.4c0-0.2,0-0.3,0-0.4
			c0-0.1,0-0.2,0-0.3c0-0.7,0.2-1.1,0.7-1.3c-0.5,0-0.7-0.2-0.7-0.4c0-0.1,0-0.3,0.1-0.5c0.1-0.2,0.1-0.4,0.1-0.5
			c0-0.2-0.1-0.4-0.3-0.5c0.2-0.2,0.2-0.4,0.2-0.7c0-0.2-0.1-0.4-0.2-0.7c-0.1-0.3-0.1-0.5-0.2-0.6c0-0.3,0.1-0.5,0.2-0.7
			c-0.1-0.2-0.1-0.5-0.2-0.9c0-0.7,0.1-1,0.1-0.8c0-0.4-0.1-0.8-0.3-1.2c-0.2-0.4-0.4-0.7-0.6-1c-0.2-0.3-0.5-0.5-0.9-0.7
			c-0.3-0.2-0.7-0.2-1-0.2c-0.3,0-0.6,0.1-0.9,0.2c-0.3,0.2-0.5,0.4-0.6,0.7c-0.1,0.5-0.1,1.1-0.2,1.7c0,0.4,0.1,0.7,0.3,0.9
			c-0.2,0.4-0.3,0.9-0.2,1.4c0,0.2,0,0.4,0.1,0.7c0,0.3,0.1,0.6,0.1,0.8c0,0.3,0.1,0.6,0.1,0.8c0,0.3,0.1,0.5,0.1,0.6
			c0,0.1,0,0.2,0,0.3s0,0.2,0,0.3c-0.2,0.3-0.3,0.7-0.3,1.2c0,0.1,0,0.3,0.1,0.6c0,0.2,0.1,0.5,0.1,0.8c0.1,0.3,0.1,0.5,0.1,0.8
			s0.1,0.4,0.1,0.6c0,0.2,0,0.5-0.1,0.7c-0.1,0.2-0.1,0.4-0.2,0.6c0,0.1,0.1,0.2,0.1,0.4c0,0.2,0.1,0.4,0.2,0.7
			c0.1,0.2,0.1,0.4,0.2,0.6c0,0.2,0.1,0.3,0.1,0.5c0,0.9-0.3,1.4-1,1.6c0.2,0.1,0.4,0.3,0.6,0.6c0.1,0.3,0.2,0.7,0.2,1.2
			c0.1,0.6,0.1,1,0.3,1.4c0.1,0.4,0.3,0.6,0.5,0.8c0.2,0.2,0.4,0.3,0.6,0.4c0.2,0.1,0.3,0.1,0.5,0.1c0.4,0,0.9-0.3,1.4-0.7l1.1-1.1
			c-0.1-0.2-0.2-0.5-0.2-0.7c0-0.3,0.1-0.7,0.3-1.1c0.2-0.3,0.3-0.5,0.4-0.7c0.1-0.2,0.1-0.3,0.2-0.3L146.4,31.4z M142.4,11.2
			c-0.4,0-0.6,0-0.7-0.2l-0.2,0.2c0.1,0.2,0.2,0.3,0.4,0.2l0.6,0L142.4,11.2z M142.3,13.3l-0.2,0c-0.2,0-0.3,0.1-0.4,0.3l0.2,0.2
			l0.5-0.5L142.3,13.3z M143.5,37c-0.1-0.2-0.2-0.3-0.4-0.2l-0.3,0l0.5,0.5L143.5,37z M143.9,39.6c-0.1-0.2-0.2-0.3-0.4-0.2
			c-0.3,0-0.5,0.2-0.5,0.5l0,0.1l0.6,0C143.7,39.8,143.8,39.7,143.9,39.6z M142.5,9.7l-0.2,0l0.2,0.3L142.5,9.7z M144.3,13.2
			L144.3,13.2c-0.1,0-0.3,0.1-0.5,0.3l0.3,0.2L144.3,13.2L144.3,13.2z M145,36.9l-0.3,0l0.3,0.2L145,36.9z M146.6,39.1l-0.3,0l0,0.3
			l0.3,0L146.6,39.1z M146.8,14.1c-0.1-0.2-0.3-0.2-0.5-0.2c-0.2,0-0.4,0.1-0.5,0.3l0.3,0.2l0.3,0C146.5,14.4,146.6,14.3,146.8,14.1
			z M147.1,18.1L147.1,18.1c-0.1,0-0.3,0-0.5-0.2l-0.2,0.5c0.2,0.2,0.4,0.2,0.4,0.2l0.1-0.1C147.1,18.4,147.2,18.2,147.1,18.1
			L147.1,18.1z M147.1,24.5l-0.2,0l-0.3,0.3l0.2,0.2C147.1,24.8,147.2,24.6,147.1,24.5L147.1,24.5z M147.6,35.6l0,0.3l0.2-0.3
			L147.6,35.6z M147.9,27.3L147.9,27.3c-0.3,0-0.4,0.1-0.4,0.4l0,0.1l0.2,0C147.9,27.6,147.9,27.5,147.9,27.3L147.9,27.3z
			 M149.1,32.7c0,0.1-0.1,0.1-0.2,0.1c-0.1,0-0.2,0.1-0.4,0.1c-0.2,0-0.3,0-0.4,0.1c-0.1,0.1-0.2,0.1-0.2,0.2l0.2,0.2
			c0.1-0.1,0.3-0.2,0.4-0.3C148.7,33.1,148.9,32.9,149.1,32.7z M149.4,34.7c0-0.2-0.1-0.3-0.4-0.3c-0.2,0-0.3,0.1-0.3,0.3l0.5,0.5
			C149.3,34.9,149.4,34.8,149.4,34.7z M149.8,18.5c-0.1,0.1-0.2,0.1-0.3,0.1c-0.1,0-0.3,0.1-0.4,0.1c-0.2,0-0.3,0.1-0.4,0.2
			s-0.2,0.2-0.3,0.3l0.2,0.2L149.8,18.5L149.8,18.5z M148.7,15.9l-0.3,0l0.3,0.2L148.7,15.9z M149.6,21.3c-0.2-0.2-0.3-0.2-0.4-0.2
			c-0.2,0-0.3,0.1-0.3,0.4c0,0.2,0.1,0.3,0.3,0.3L149.6,21.3z M153.2,29.5l-0.2,0c-0.3,0-0.4,0.1-0.5,0.3c0.2,0.2,0.4,0.2,0.4,0.2
			l0.1,0C153.2,29.8,153.2,29.7,153.2,29.5L153.2,29.5z M153.9,26.6l-0.3,0l0-0.3l0.3,0L153.9,26.6z"/>
		<path class="st11" d="M182.7,38.5c-0.1,0.9-0.2,1.5-0.4,1.7c-0.3,0.6-0.8,0.9-1.4,0.9c-0.3,0-0.6,0-0.9,0c-0.4,0-0.8,0-1.3,0
			c-1,0-1.8-0.1-2.3,0l-2.3,0.1c-0.3,0-0.6,0-0.9,0c-0.4,0-0.8,0-1.3,0c-0.5,0-1-0.1-1.3-0.1c-0.4,0-0.7,0-0.9,0
			c-0.2,0-0.4,0-0.6,0.1c-0.3,0-0.5,0.1-0.8,0.2c-0.3,0.1-0.5,0.1-0.8,0.2c-0.3,0.1-0.5,0.1-0.6,0c-0.5,0-1.1-0.1-1.5-0.3
			c-0.6-0.3-0.9-0.7-0.9-1.2c0-0.1,0-0.3,0.1-0.5c0.1-0.2,0.1-0.4,0.1-0.5c0-0.1,0-0.1-0.1-0.2c0,0-0.1,0-0.2,0
			c-0.1-5-0.2-10-0.2-14.9c0.1,0,0.1-0.4,0.1-1c0-0.7-0.1-1.6-0.2-2.9c-0.1-1.3-0.2-2.9-0.4-4.8c-0.1-1.9-0.3-4.1-0.4-6.7l1.6-1.5
			l11.9-0.1c0.1,0,0.2,0,0.4-0.1c0.2,0,0.4-0.1,0.5-0.1c0.2,0,0.4-0.1,0.6-0.1c0.2,0,0.3-0.1,0.5-0.1c0.8,0,1.3,0,1.7,0.2
			c0.6,0.4,1,1.3,1.1,2.9c0,1.1-0.2,2.3-0.5,3.5l-1.1,0.7l-6.2,0c-0.1,0-0.1,0-0.3-0.1c-0.1,0-0.2-0.1-0.2-0.1c-0.4,0-0.7,0.3-1,0.9
			c-0.1,0.3-0.3,0.5-0.4,0.7s-0.3,0.3-0.4,0.3c0.1,0.1,0.1,0.3,0.1,0.5c0,0.2,0,0.5,0,0.7c0,0.2,0,0.5,0,0.7c0,0.2,0.1,0.4,0.2,0.6
			c-0.3,0.1-0.6,0.2-0.9,0.4c-0.4,0.1-0.6,0.3-0.8,0.6c0.2,0.3,0.5,0.5,0.9,0.5c0.4,0,0.7-0.1,1-0.3c0,0,0,0.1,0,0.1
			c0,0,0,0.1,0,0.1c0,0.1,0,0.2,0.1,0.3c0.1,0.1,0.2,0.2,0.3,0.4l6.7-0.2c0.3,0.2,0.6,0.5,0.7,0.7c0.2,0.3,0.3,0.5,0.3,0.7
			c0,0.2-0.1,0.5-0.2,0.7c0.1,0.7,0.2,1.3,0.3,1.7c0,0.4,0.1,0.6,0.1,0.8c0.1,0.5,0,0.9-0.1,1.2c-0.1,0.3-0.3,0.7-0.5,0.9l-6.9,0.7
			c-0.1,0.1-0.2,0.1-0.3,0.1s-0.3,0-0.5-0.1c-0.2-0.1-0.4-0.1-0.5-0.1c-0.2,0-0.3,0.2-0.4,0.7l0.5,0.5c0-0.2,0.2-0.3,0.4-0.3l0.3,0
			c-0.1,0.3-0.2,0.6-0.2,1c0,0.2,0,0.4,0.1,0.6c0,0.1,0,0.3,0,0.5l0,0.3c-0.1,0-0.1,0-0.1,0c0,0-0.1,0-0.1,0c-0.1,0-0.4,0.2-0.7,0.5
			c0,0.1,0.1,0.2,0.2,0.2c0.1,0.1,0.2,0.1,0.4,0.2c0.1,0.1,0.2,0.1,0.3,0.2c0.1,0.1,0.1,0.1,0.1,0.2c0,0,0,0.1,0,0.1
			c0,0.1,0,0.1,0,0.2l-0.7,0.8c0.4,0.2,0.7,0.4,1,0.7c0.3,0.3,0.5,0.5,0.8,0.9c0.3,0.1,0.6,0.2,0.9,0.2c0.3,0,0.7,0,1.1,0
			c0.2,0,0.5,0,0.8,0c0.4-0.1,0.8-0.1,1.3-0.2c0.5-0.1,0.9-0.2,1.3-0.2c0.4,0,0.7,0,0.9,0c0.2,0,0.4,0,0.6,0c0.2,0,0.4,0,0.6,0
			c0.1-0.2,0.2-0.3,0.4-0.3c0.1,0,0.2,0,0.3,0.1c0.1,0,0.2,0.1,0.3,0.2c0.1,0.1,0.2,0.1,0.3,0.2c0.1,0.1,0.2,0.1,0.2,0.1
			c0.3,0.4,0.5,0.8,0.5,1.4c0,0.1,0,0.3,0,0.4c0,0.2,0,0.3,0,0.5c0,0.2,0,0.3,0,0.5c0,0.2,0,0.3,0,0.4
			C182.6,38,182.6,38.3,182.7,38.5L182.7,38.5z M165.3,12.9l-0.3,0l0,0.3l0.3,0L165.3,12.9z M167,30.8c0-0.2-0.2-0.3-0.5-0.3
			c-0.3,0-0.6,0.2-0.8,0.5c0.1,0.1,0.3,0.2,0.4,0.2l0.5,0C166.9,31,167,30.8,167,30.8z M166.4,36.8l-0.4,0l0,0.4l0.4,0L166.4,36.8z
			 M166.1,25.3l-0.2,0.5l0.5-0.5L166.1,25.3z M167.6,20.9l-0.4,0.8l0.7-0.5L167.6,20.9z M168.9,24.5c-0.5-0.4-1-0.5-1.4-0.5
			l-0.2,0.1c0.1,0,0.1,0.1,0.2,0.1s0.2,0.1,0.3,0.2s0.3,0.1,0.4,0.2c0.1,0.1,0.2,0.1,0.3,0.1C168.7,24.7,168.8,24.6,168.9,24.5z
			 M167.6,25.4l-0.3,0l0,0.4l0.3,0L167.6,25.4z M168.1,28.1c-0.2,0-0.2,0.2-0.2,0.4c0,0.2,0.1,0.3,0.3,0.3l0.3,0
			c0.2,0,0.3-0.1,0.4-0.2L168.1,28.1z M168,18.7c0-0.1-0.1-0.2-0.3-0.4l-0.2,0.3c0.2,0.2,0.3,0.2,0.4,0.2L168,18.7L168,18.7z
			 M168.4,32.2l-0.3,0l0,0.3l0.3,0L168.4,32.2z M168.6,20.5l-0.1,0c-0.1,0-0.2,0.1-0.3,0.3l0.2,0.2
			C168.5,20.7,168.6,20.6,168.6,20.5L168.6,20.5z M169.1,37.6l-0.4,0l0,0.3l0.4,0L169.1,37.6z M168.6,15l-0.2,0l0.4,0.2L168.6,15z
			 M169.6,37.2c0-0.1-0.1-0.2-0.3-0.4l-0.2,0.3C169.3,37.2,169.5,37.3,169.6,37.2L169.6,37.2L169.6,37.2z M170.5,22.1
			c-0.1,0-0.2,0-0.3,0c-0.2,0-0.7,0.2-1.3,0.6l0.5,0.5c0.1-0.1,0.2-0.1,0.4-0.2c0.1-0.1,0.3-0.1,0.4-0.2c0.1-0.1,0.2-0.2,0.3-0.3
			C170.4,22.3,170.5,22.2,170.5,22.1z M169.9,32.5c0-0.2-0.2-0.3-0.7-0.4l0,0c0,0.3,0.2,0.4,0.5,0.4L169.9,32.5z M169.2,16l-0.4,0
			l0,0.3l0.4,0L169.2,16z M169.2,19l-0.3,0.2l0.3,0.3l0.2-0.3L169.2,19z M169.5,20.9l-0.2,0.3l0.2,0.2l0.3-0.2L169.5,20.9z
			 M171.1,39.8c-0.2-0.2-0.3-0.2-0.4-0.2l-0.1,0l0.3,0.5L171.1,39.8z M170.6,13c0-0.2-0.2-0.3-0.4-0.2c-0.2,0-0.3,0.1-0.3,0.3
			l0.2,0.2l0.1,0L170.6,13z M170.2,15.7l-0.2,0.5l0.1,0c0,0,0.2-0.1,0.4-0.3L170.2,15.7z M170.8,24.6c-0.2-0.2-0.4-0.2-0.4-0.2
			l-0.1,0.1l0.5,0.5L170.8,24.6z M171.4,34.4l-0.2,0l0.2,0.2L171.4,34.4z M170.9,11l-0.3,0l0,0.3l0.3,0L170.9,11z M171.3,25.8
			l-0.2,0.5l0.1,0c0.1,0,0.2-0.1,0.4-0.3L171.3,25.8z M172.7,36.9c-0.1-0.2-0.3-0.3-0.5-0.2l-0.3,0l0.5,0.5L172.7,36.9z M171.9,11.9
			l-0.3,0l0,0.3l0.3,0L171.9,11.9z M172.8,35l-0.2,0.5l0,0c0.1,0,0.2,0,0.3,0.1s0.2,0.1,0.3,0.1c0.1,0,0.2-0.1,0.3-0.3L172.8,35z
			 M173,25.7l-0.2,0.3l0.2,0.2l0.3-0.2L173,25.7z M173.4,23.4l-0.2,0l0.2,0.2L173.4,23.4z M174.4,12.6l-0.3,0l0.3,0.3L174.4,12.6z
			 M174.8,23.1l-0.3,0.3l0.3,0.2l0.2-0.2L174.8,23.1z M175.4,35.5l-0.4,0l0,0.3l0.4,0L175.4,35.5z M176.3,9.9l-0.3,0l0,0.3l0.3,0
			L176.3,9.9z"/>
		<path class="st13" d="M212.1,41.3c-0.1,0.5-0.2,0.9-0.5,1.2c-0.4,0.3-0.8,0.4-1.3,0.3c-0.1,0-0.3-0.1-0.5-0.2
			c-0.2-0.1-0.4-0.1-0.6-0.2c-0.2-0.1-0.4-0.1-0.6-0.2c-0.2-0.1-0.4-0.1-0.5-0.1c-0.4-0.1-0.7,0-1.1,0.1l-0.2-0.3
			c-0.2,0.1-0.4,0.2-0.5,0.1c-0.1,0-0.2-0.1-0.3-0.1c-0.1-0.1-0.2-0.1-0.3-0.2c-0.1-0.1-0.2-0.1-0.3-0.2c-0.1-0.1-0.2-0.1-0.3-0.2
			c-0.7-0.9-0.8-2.8-0.4-5.7c0.1-0.2,0.1-0.5,0.2-0.8c0.1-0.3,0.1-0.7,0.2-1.1c0.1-0.5,0.2-0.8,0.2-1.1s0.1-0.5,0-0.6
			c0.2-1.1,0.1-2.1-0.2-2.9c-0.3-0.8-1-1.5-1.9-2c-0.3,0.1-0.5,0.1-0.8,0.1c-0.1,0-0.3-0.1-0.6-0.2c-0.3-0.1-0.5-0.1-0.6-0.2
			c-0.3,0-0.4,0-0.6,0c0.6,0.3,0.9,0.8,0.8,1.3c0,0.1-0.1,0.2-0.1,0.4c-0.1,0.1-0.1,0.3-0.2,0.5c-0.1,0.2-0.1,0.3-0.2,0.5
			c-0.1,0.2-0.1,0.3-0.1,0.4c-0.1,0.4,0,0.7,0.2,1c-0.3,0.2-0.5,0.4-0.6,0.6c0,0.1,0,0.2,0,0.3c0,0.1,0.1,0.3,0.1,0.4
			s0.1,0.3,0.1,0.4c0,0.1,0,0.2,0,0.3c0,0.2-0.2,0.4-0.4,0.6c0,0.5,0,0.9,0,1.4c0,0.5-0.1,1-0.2,1.6l-0.5,3.1
			c-0.5,0.7-1.2,0.9-2,0.7c-0.2,0-0.4-0.1-0.6-0.2c-0.2-0.1-0.5-0.2-0.8-0.2c-0.3-0.1-0.5-0.2-0.8-0.2c-0.2-0.1-0.4-0.1-0.5-0.2
			c-0.1,0-0.2,0-0.4,0c-0.2,0-0.3,0-0.5,0.1c-0.1,0-0.3,0-0.5,0.1c-0.1,0-0.3,0-0.3,0c-0.3,0-0.5-0.1-0.7-0.2
			c-0.2-0.2-0.4-0.4-0.5-0.6c-0.1-0.2-0.2-0.5-0.3-0.8c0-0.3-0.1-0.6,0-0.9c0.1-0.4,0.2-0.7,0.4-1.1l-0.5-0.4l3.8-19.2
			c-0.2-0.1-0.2-0.3-0.2-0.6c0.1-0.5,0.1-0.7,0.1-0.6l0.1,0c0,0,0.1,0.1,0.3,0.3c0.4-0.3,0.6-0.5,0.6-0.5c0-0.3,0-0.4-0.2-0.4
			c-0.1,0-0.2,0-0.4,0.1c-0.2,0-0.3,0-0.4,0l1.2-8.2c0.3-0.4,0.8-0.6,1.5-0.7c0.6-0.1,1.3-0.1,2.1,0c0.3,0,0.6,0.1,1,0.2
			c0.4,0.1,0.8,0.2,1.3,0.3c0.5,0.2,0.9,0.3,1.3,0.3c0.4,0.1,0.7,0.1,1,0.2c0.2,0,0.4,0.1,0.7,0.1c0.3,0,0.7,0.1,1.1,0.1
			c0.4,0,0.8,0,1.1,0c0.3,0,0.6,0.1,0.8,0.1c1.7,0.3,3,0.7,4,1.2c1,0.5,1.8,1.3,2.2,2.4c0.2,0.5,0.4,1.3,0.5,2.5
			c0.1,1.1,0.2,2.6,0.1,4.4c0,0.2,0,0.4,0,0.6c0,0.2,0,0.4-0.1,0.6c-0.1,1.1-0.6,2.6-1.7,4.3c-0.2,0.3-0.6,0.6-1.2,1
			c-0.6,0.4-1,0.7-1,1.1c-0.1,0.1,0,0.4,0.1,0.7c0.1,0.4,0.3,0.8,0.6,1.4c0.3,0.6,0.5,1.1,0.6,1.6c0.1,0.5,0.2,0.9,0.1,1.3
			c-0.1,0.3-0.2,0.6-0.3,0.9c0.1,0.2,0.2,0.5,0.2,0.8s0,0.6,0,0.9c0,0.5-0.1,1.1-0.3,1.9c-0.1,0.6-0.2,1-0.2,1.3
			c0,0.3-0.1,0.4-0.1,0.5c0,0.3-0.1,0.6-0.1,0.9c0,0.4,0,0.8,0.1,1.3c0,0.5,0.1,0.9,0.1,1.3C212.1,40.8,212.1,41,212.1,41.3z
			 M196.7,20.7c-0.1-0.2-0.2-0.3-0.3-0.3c-0.2,0-0.3,0-0.4,0.2l0.2,0.3l0.1,0L196.7,20.7z M196.7,28.4c-0.1-0.2-0.3-0.3-0.6-0.4
			s-0.6,0-0.8,0.1l0.2,0.3l0.7,0.1C196.4,28.6,196.6,28.5,196.7,28.4z M195.3,29.6l-0.3,0l0.2,0.3L195.3,29.6z M195,32.8l-0.4-0.1
			l-0.1,0.4l0.4,0.1L195,32.8z M197.6,24.2c-0.1-0.2-0.3-0.3-0.6-0.3s-0.5,0-0.6,0.2l0.2,0.3l0.6,0.1
			C197.4,24.4,197.5,24.3,197.6,24.2z M197.6,22.7c0-0.1-0.2-0.3-0.4-0.3l-0.1,0l-0.2,0l0.4,0.6L197.6,22.7z M195.5,34.4l-0.3,0
			l0.2,0.3L195.5,34.4z M199,14.5l-0.4-0.1l-0.1,0.3l0.4,0.1L199,14.5z M196.4,30.9l-0.4-0.1l-0.1,0.3l0.4,0.1L196.4,30.9z
			 M195.5,35.9l-0.2,0l0.2,0.3L195.5,35.9z M198.4,27c0-0.1-0.1-0.2-0.2-0.2c-0.1-0.1-0.2-0.1-0.3-0.2c-0.1,0-0.2-0.1-0.3-0.1
			c-0.1-0.1-0.2-0.1-0.2-0.1l0.8,0.8L198.4,27z M198.7,21.7l-0.5-0.1l0.4,0.3L198.7,21.7z M199.5,19.4c0-0.2-0.1-0.3-0.3-0.3
			c-0.2,0-0.3,0-0.4,0.2l0.2,0.3l0.1,0C199.1,19.6,199.3,19.6,199.5,19.4z M198.2,25.2l0,0.3l0.3-0.2L198.2,25.2z M200.2,13.8l0,0.3
			l0.3-0.2L200.2,13.8z M200.7,16.6c0,0-0.1-0.2-0.2-0.4l-0.6,0.4l0.2,0.3l0.1,0C200.3,16.9,200.5,16.9,200.7,16.6L200.7,16.6z
			 M198.7,29.6l-0.8,0.4l0.2,0.3c0-0.1,0.1-0.1,0.3-0.2c0.1-0.1,0.2-0.2,0.2-0.3L198.7,29.6z M201.5,17.8c-0.1-0.2-0.3-0.3-0.5-0.3
			c-0.5-0.1-0.8,0.1-1,0.5c0.1-0.1,0.2-0.1,0.3-0.1c0.1,0,0.3,0,0.4,0c0.2,0,0.3,0,0.4,0C201.3,17.9,201.4,17.9,201.5,17.8z
			 M199.2,34.1c-0.1-0.2-0.3-0.3-0.6-0.4c-0.4-0.1-0.5,0.1-0.5,0.4l0,0.1c0.1,0.2,0.2,0.2,0.3,0.3c0,0,0.1,0,0.2,0
			c0.1,0,0.2-0.1,0.3-0.1c0.1,0,0.2-0.1,0.2-0.1C199.1,34.1,199.1,34,199.2,34.1z M200.2,22.7c-0.3,0-0.4,0-0.5,0.2l0.2,0.3l0.5-0.4
			L200.2,22.7z M199.1,28.3c-0.2,0.1-0.3,0.2-0.3,0.3c0,0.2,0,0.3,0.2,0.4l0.8-0.6L199.1,28.3z M202.9,24.4c0,0-0.1-0.2-0.2-0.5
			c-0.4,0.4-0.8,0.6-1.2,0.8c-0.5,0.2-1,0.3-1.6,0.3c0.1,0,0.1,0.1,0.2,0.1c0.1,0,0.1,0,0.2,0.1c0.1,0,0.3,0,0.5,0
			c0.2,0,0.5-0.1,0.7-0.2C202.3,24.7,202.7,24.5,202.9,24.4L202.9,24.4z M203.9,10.3c-0.1-0.2-0.4-0.3-0.6-0.4c-0.3,0-0.6,0-0.8,0.1
			l0.2,0.3c-0.1,0-0.1,0,0,0.1c0.1,0,0.3,0,0.6,0.1C203.6,10.5,203.7,10.4,203.9,10.3z M202.4,15.5l-0.3-0.1l-0.1,0.4l0.3,0.1
			L202.4,15.5z M201.7,21.2c0.1-0.2,0-0.4-0.1-0.5c-0.2,0.1-0.3,0.2-0.3,0.4c0,0.2,0,0.4,0.2,0.5l0.2-0.2L201.7,21.2z M201.3,23.6
			l-0.2,0.2l0.2,0.3l0.3-0.2L201.3,23.6z M200.6,28.6l-0.3-0.1l-0.1,0.4l0.3,0.1L200.6,28.6z M207.8,20.3L207.8,20.3
			c-0.1,0-0.2,0-0.2,0c-0.1,0-0.2,0.1-0.3,0.1c0.1-0.5,0.2-1.2,0.3-1.9c0.1-0.7,0.2-1.6,0.2-2.5c0-0.3-0.1-0.7-0.2-1
			c-0.1-0.3-0.3-0.6-0.5-0.8c-0.2-0.2-0.4-0.5-0.7-0.6c-0.3-0.2-0.6-0.3-0.9-0.3c-1.1-0.2-1.9,0.1-2.5,1c0,0.3,0,0.6,0,1.1
			c0,0.4-0.1,0.9-0.1,1.4c-0.1,0.8-0.3,1.4-0.3,1.9c-0.1,0.5-0.1,0.8-0.1,0.9c0,1.2,0.4,1.9,1.2,2.1c0.1,0,0.3,0,0.5,0
			c0.2,0,0.5-0.1,0.7-0.1c0.2,0,0.5-0.1,0.7-0.1c0.2,0,0.4,0,0.5,0c0.3,0.1,0.6,0.2,0.8,0.5l0.3-0.2l-0.7-0.6c0-0.1,0-0.1,0-0.1l0,0
			c0-0.1,0.2-0.4,0.6-0.7l0.6,0.8l0.1,0c0.1,0,0.2-0.1,0.4-0.2L207.8,20.3z M202.7,22.4c0-0.2-0.1-0.4-0.4-0.4l-0.3,0l0,0.1
			c-0.1,0.4,0,0.6,0.3,0.6l0.1,0C202.6,22.6,202.7,22.5,202.7,22.4z M204.2,26.2l-0.2,0c-0.7-0.1-1.2,0-1.5,0.2l0.4,0.5
			c0.2,0,0.4-0.1,0.7-0.2c0.2-0.1,0.5-0.3,0.9-0.5L204.2,26.2z M206.2,23.4c0-0.2-0.1-0.3-0.3-0.3l-0.6-0.1c-0.1,0-0.4,0.1-0.7,0.1
			c-0.3,0-0.7,0.1-1.2,0.1l0.2,0.3c0.1-0.1,0.3-0.1,0.5,0c0.1,0,0.3,0.1,0.6,0.2c0.3,0.1,0.4,0.1,0.6,0.1
			C205.6,23.7,205.9,23.6,206.2,23.4z M203.9,25.2c0-0.1-0.2-0.2-0.4-0.3l-0.1,0l-0.2,0l0.4,0.5L203.9,25.2z M205.9,11.7l-0.3-0.1
			l-0.1,0.4l0.3,0.1L205.9,11.7z M207.7,11.8l-0.2,0l0.2,0.3L207.7,11.8z M207.5,24.3c0-0.1-0.1-0.2-0.2-0.2c-0.1,0-0.1-0.1-0.2-0.1
			c-0.5-0.1-0.7,0.1-0.8,0.6c0.1,0,0.1,0.1,0.2,0.1l0,0c0.1,0,0.2,0,0.3,0c0.1,0,0.2-0.1,0.3-0.1c0.1-0.1,0.2-0.1,0.3-0.2
			S207.4,24.3,207.5,24.3z M206.7,26.7l-0.3-0.1l-0.1,0.3l0.3,0.1L206.7,26.7z M206.5,30.4c0-0.2-0.1-0.3-0.3-0.3
			c-0.2,0-0.3,0-0.4,0.2l0.2,0.3l0.1,0C206.1,30.6,206.2,30.5,206.5,30.4z M207.1,28.1c-0.1-0.2-0.3-0.3-0.3-0.3l-0.1,0l0.4,0.6
			L207.1,28.1z M209.2,23.8c-0.1-0.2-0.3-0.3-0.6-0.4c-0.4-0.1-0.7,0.1-0.9,0.4c0.1,0.2,0.2,0.3,0.4,0.3c0.1,0,0.1,0,0.2,0
			c0.1,0,0.2-0.1,0.3-0.1c0.1,0,0.2-0.1,0.3-0.1C209,23.8,209.1,23.8,209.2,23.8z M208.9,19.7l-0.2,0.2l0.2,0.3l0.3-0.2L208.9,19.7z
			 M210.1,18.2c0-0.1,0-0.1,0-0.2c0-0.1-0.1-0.2-0.1-0.2s-0.1-0.2-0.2-0.3l-0.2,0.2c0,0,0.1,0,0.1,0.1c0,0.1,0.1,0.1,0.1,0.2
			c0,0.1,0.1,0.1,0.2,0.2c0.1,0,0.1,0.1,0.2,0.1L210.1,18.2L210.1,18.2z M208.4,25.9l-0.3,0.2l0.2,0.3l0.3-0.2L208.4,25.9z
			 M208.5,28.1L208.5,28.1c-0.1-0.1-0.3,0-0.5,0.1l0.2,0.3c0.2-0.2,0.3-0.3,0.3-0.3L208.5,28.1z M210.9,12.8l-0.2,0l0.1,0.5
			L210.9,12.8z M212.4,15.3l-0.4-0.1l-0.1,0.3l0.4,0.1L212.4,15.3z"/>
	</g>
	<g>
		<g>
			<path class="st11" d="M140.2,52.3c0,0.3-0.1,0.8-0.1,1.4c0,0.6-0.1,1.3-0.2,2.1c-0.1,0.8-0.2,1.5-0.2,2c-0.1,0.6-0.1,1.1,0,1.5
				c0,0.5,0,0.9,0.1,1.4c0,0.4,0.1,0.8,0.2,1.2c-0.3,0.1-0.4,0.3-0.4,0.5c0,0.1,0,0.3,0.1,0.4c0.1,0.1,0.3,0.2,0.6,0.3L140.1,81
				c-0.1,0.1-0.1,0.2-0.1,0.3c0,0.1-0.1,0.2-0.1,0.4c0,0.1,0,0.4,0,0.7c0,0.2,0,0.3,0,0.4s0,0.2,0,0.3c0,0.9-0.4,1.4-1.2,1.6
				c-0.1,0-0.3,0.1-0.6,0.1c-0.4,0-0.9,0-1.5,0c-0.2,0-0.3,0-0.4,0s-0.3,0-0.4,0.1c-0.2-0.1-0.7-0.2-1.5-0.2c-0.5,0-0.8-0.2-1.1-0.7
				c0.1-0.4,0.2-0.8,0.2-1.3c0.1-0.4,0.1-0.9,0.1-1.3c0-0.3,0-0.6-0.1-1.1c0-0.4-0.1-0.9-0.2-1.5c0-0.6-0.1-1.1-0.1-1.5
				c0-0.4,0-0.8,0-1.1c0-0.5,0-1,0-1.4c0-0.4,0.1-0.9,0.2-1.3h0.1c0,0,0.1,0,0.1,0.1c0,0,0.1,0.1,0.2,0.1l0.5-0.5
				c0-0.2-0.1-0.4-0.3-0.5c-0.2-0.1-0.5-0.2-0.9-0.1l0.9-1H134c-0.5,0-0.8-0.3-0.8-1c0-0.7-0.3-1-0.8-0.9h-0.1
				c-0.2,0.1-0.3,0.2-0.5,0.5c-0.2,0.2-0.3,0.4-0.5,0.6c-0.2,0.2-0.3,0.4-0.5,0.6c-0.2,0.2-0.3,0.4-0.4,0.4c0.2,0.1,0.3,0.2,0.3,0.2
				h0.1l0.2-0.2c-0.1,0.2-0.1,0.4-0.2,0.7c-0.1,0.2-0.1,0.4-0.2,0.7c-0.1,0.3-0.2,0.5-0.3,0.7c-0.1,0.2-0.2,0.4-0.3,0.5
				c0.1,0.2,0.1,0.4,0.2,0.6c0,0.2,0,0.3-0.1,0.6c0,0.2-0.1,0.5-0.1,0.7c-0.1,0.2-0.1,0.5-0.2,0.7c0,0.2-0.1,0.4-0.1,0.5
				c0,0.1,0,0.3,0,0.5c0,0.2,0,0.4,0,0.5c0,0.4-0.1,0.7-0.2,1.1c-0.1,0.4-0.3,0.7-0.6,1c0.1,0.2,0.1,0.4,0.2,0.8
				c0,0.4-0.1,0.8-0.2,1.2c-0.1,0.4-0.3,0.7-0.5,1.1c-0.5,0.8-1.1,1.2-1.9,1.2c-0.1,0-0.2,0-0.3-0.1c-0.1-0.1-0.2-0.2-0.3-0.3
				c-0.1-0.1-0.2-0.2-0.3-0.3c-0.1-0.1-0.2-0.1-0.3-0.1c0,0-0.1,0-0.1,0c0,0-0.1,0-0.1,0.1c-0.2-0.9-0.4-1.8-0.6-2.6
				c-0.2-0.9-0.3-1.8-0.5-2.7c-0.2-1.1-0.4-2-0.5-2.9c-0.1-0.9-0.2-1.7-0.3-2.4h0.1c0,0,0.2-0.2,0.6-0.5c-0.2-0.1-0.4-0.3-0.5-0.3
				c-0.1-0.1-0.2-0.1-0.1-0.1h-0.1l-0.3,0.3c0-0.7-0.2-1.4-0.5-2c-0.3-0.6-0.8-1.1-1.4-1.6c0.1,0-0.3,0-1.2,0
				c-0.5,0-0.7,0.2-0.7,0.6c0,0,0,0,0.1,0.1c0.1,0.1,0.2,0.3,0.4,0.5h1.2c-0.2,1-0.3,1.6-0.2,1.9h-0.1c-0.1,0-0.2-0.1-0.3-0.3
				c-0.3,0.4-0.5,0.6-0.5,0.6v0.1l0.5,0.4l0.1-0.2l0.1,5.2c0.2,0.3,0.3,0.8,0.3,1.4v0.7h-0.1c0,0,0,0-0.1,0.1
				c-0.1,0.1-0.3,0.2-0.5,0.4c0.5,0.1,0.8,0.6,0.8,1.2c0,0.1,0,0.2,0,0.3c0,0.1,0,0.4-0.1,0.7c0,0.2,0,0.4,0,0.5
				c0,0.1,0,0.3,0.1,0.4l-0.7,0.7c-0.1,0-0.3,0-0.4-0.1c-0.1,0-0.3,0-0.4,0c-0.2,0-0.4,0-0.7,0.1c-0.3,0-0.6,0.1-0.9,0.1
				c-0.3,0-0.6,0.1-0.9,0.1c-0.3,0-0.5,0-0.7,0c-0.7,0-1.2-0.1-1.6-0.3c-0.3-0.2-0.5-0.5-0.5-0.9c0-0.1,0-0.3,0.1-0.6
				c0.1-0.2,0.1-0.4,0.1-0.5c0-0.3-0.1-0.5-0.3-0.7c0.2-0.1,0.3-0.2,0.3-0.3c0-0.1,0-0.2-0.1-0.4c-0.1-0.1-0.2-0.2-0.3-0.3l0.4-7.4
				l0.1-0.4c0-2,0-3.7-0.1-5c0-1.3-0.1-2.2-0.1-2.9c0-0.4,0.1-0.8,0.1-1.1c0-0.3,0.1-0.5,0.3-0.7l-0.6-11.7c0.2-0.5,0.5-0.9,0.9-1.1
				c0.4-0.2,0.9-0.4,1.5-0.4c0.1,0,0.3,0,0.5,0c0.2,0,0.4,0,0.7,0h1.3c0.2,0,0.4,0,0.7,0.1c0.3,0,0.6,0,1,0.1
				c0.7,0.1,1.2,0.1,1.7,0.1c0.3,0.2,0.5,0.5,0.7,0.9c0.2,0.4,0.3,0.9,0.4,1.5c0.1,0.5,0.3,0.9,0.3,1.4c0.1,0.5,0.2,0.9,0.3,1.4
				h-0.1c0.1,0-0.1-0.2-0.6-0.5l-0.2,0.3c1,0.5,1.5,1.4,1.6,2.8c0.1,0.9,0.2,1.6,0.3,2.1c0.1,0.6,0.3,1,0.5,1.2c0-0.1,0,0.3,0,1.1
				c0,0.3,0.2,0.6,0.5,0.7h0.1c-0.1,0-0.2,0-0.3,0c-0.3,0-0.5-0.1-0.5-0.2c-0.2,0-0.3,0.1-0.3,0.3s0.1,0.3,0.3,0.3
				c0.1,0.2,0.2,0.3,0.3,0.4c0.1,0.1,0.3,0.2,0.5,0.2c0.6,0.1,0.9,0.2,1,0.3l0.7-0.7l-0.5-0.4c0-0.1,0.1-0.3,0.2-0.4
				c0.1-0.1,0.3-0.2,0.4-0.3c0.2-0.1,0.3-0.2,0.5-0.3c0.1-0.1,0.2-0.2,0.3-0.3c-0.3-0.3-0.5-0.5-0.5-0.8c0-0.1,0-0.2,0.1-0.4
				c0.1-0.2,0.1-0.3,0.2-0.5c0.1-0.2,0.1-0.4,0.2-0.6c0.1-0.2,0.1-0.3,0.1-0.5c0-0.1,0-0.2,0-0.3c0-0.1,0-0.2-0.1-0.3h0.2
				c0.2,0,0.4,0,0.6-0.1c0.2-0.1,0.3-0.3,0.3-0.5c0,0-0.1-0.1-0.3-0.3h-0.5c0.2-0.5,0.3-0.9,0.3-1.2c0,0,0.1,0,0.1,0
				c0,0,0.1,0,0.1,0c0.1,0,0.4-0.2,0.8-0.5c-0.1-0.2-0.3-0.5-0.3-0.8c-0.1-0.3-0.1-0.6-0.1-0.8c0-0.6,0.1-1.3,0.4-2.1
				c0.1-0.3,0.2-0.7,0.4-1c0.1-0.3,0.3-0.7,0.4-1c0.3-0.3,0.6-0.4,1-0.6c0.4-0.1,0.9-0.2,1.5-0.2c0.1,0,0.2,0,0.5,0
				c0.3,0,0.6,0,1.1,0.1c0.3,0,0.6,0,0.9,0c0.3,0,0.5-0.1,0.7-0.1c0.4,0.1,0.7,0.2,1.1,0.2c0.4,0.1,0.7,0.1,1.1,0.1
				C139.7,50.9,140.1,51.4,140.2,52.3L140.2,52.3z M115.4,62.2H115v0.3h0.3V62.2z M115.5,66.1H115l0.5,0.3V66.1z M116,60.4l-0.2-0.2
				l0.2,0.5V60.4z M116.1,70.2h-0.3v0.4h0.3V70.2z M117.2,57.3l-0.3,0.5c0.5,0.3,0.7,0.4,0.7,0.4c0.1,0,0.2-0.1,0.3-0.2L117.2,57.3z
				 M117.2,73.2L117.2,73.2c0,0.2,0.1,0.3,0.3,0.3c0.2,0,0.4-0.1,0.4-0.3H117.2z M117.6,59.7L117.6,59.7l-0.5,0.2l0.2,0.3
				C117.5,60,117.6,59.8,117.6,59.7L117.6,59.7z M119.5,62.1c-0.4,0.1-0.8,0.2-1.2,0.2c-0.3,0-0.5-0.1-0.7-0.2l-0.3,0.2
				c0.1,0.3,0.4,0.5,0.8,0.5h0.8c0.1-0.1,0.2-0.2,0.3-0.3c0.1-0.1,0.1-0.1,0.2-0.2S119.5,62.3,119.5,62.1L119.5,62.1z M117.7,76.2
				h-0.3v0.4h0.3V76.2z M118.1,56.4c0-0.1-0.1-0.2-0.3-0.4l-0.2,0.3c0.1,0.1,0.2,0.1,0.2,0.2c0,0,0.1,0.1,0.1,0.1L118.1,56.4
				L118.1,56.4z M118.1,69.6l-0.3,0.5l0.3-0.2V69.6z M120.9,65.7c-0.1-0.4-0.3-0.5-0.6-0.5c-0.3,0-0.7,0.2-1,0.7l-0.3-0.2
				c-0.1,0-0.1,0-0.2,0c-0.1,0-0.4,0.2-0.7,0.5c0.1,0,0.1,0.1,0.2,0.1c0.1,0,0.2,0,0.3-0.1c0.1,0,0.2-0.1,0.4-0.1s0.3-0.1,0.4-0.1
				c0.1,0,0.2,0,0.3,0c0.1,0,0.1,0,0.2,0h0.6C120.6,65.9,120.8,65.8,120.9,65.7z M119.8,67.7c0-0.4-0.2-0.6-0.7-0.6
				c-0.3,0-0.6,0.2-0.7,0.5c0.2,0.4,0.5,0.5,1,0.5l0.2,0C119.7,67.8,119.8,67.7,119.8,67.7z M118.7,75.2h-0.3v0.3h0.3V75.2z
				 M118.7,77.1h-0.3v0.3h0.3V77.1z M119.5,73.2c0-0.1-0.1-0.2-0.3-0.2c-0.2,0-0.3,0.1-0.3,0.2l0.2,0.3h0.1
				C119.2,73.4,119.3,73.4,119.5,73.2z M119,58.3l0.3,0.3l0.2-0.3H119z M120,59.9c0-0.1-0.1-0.2-0.3-0.4l-0.5,0.5l0.2,0.3h0.1
				C119.6,60.2,119.7,60.1,120,59.9L120,59.9z M122.8,64.4c-0.1,0-0.2,0.1-0.3,0.1c-0.1,0-0.2,0-0.3,0c-0.3,0-0.8-0.1-1.3-0.4
				c-0.5-0.3-0.8-0.4-1-0.4H120c0.1,0.1,0.2,0.2,0.3,0.3c0.1,0.1,0.3,0.2,0.6,0.3c0.4,0.2,0.7,0.5,0.7,0.8h0.4c0.2,0,0.4,0,0.6-0.1
				c0.2-0.1,0.3-0.2,0.3-0.4L122.8,64.4z M120.5,68.3l-0.5,0.5l0.3,0.2l0.5-0.5L120.5,68.3z M121.2,55.2c-0.4,0-0.7-0.1-0.7-0.2
				l-0.2,0.2c0.1,0.2,0.2,0.3,0.4,0.3h0.6V55.2z M120.5,56.4l-0.2,0.3l0.2,0.2l0.3-0.2L120.5,56.4z M120.5,57.6h-0.2l0.2,0.2V57.6z
				 M122.2,60.7c0-0.2-0.1-0.3-0.3-0.3c0,0-0.1,0-0.3,0.1c-0.2,0.1-0.4,0.1-0.7,0.3l0.7,0.7l0.1,0c0.1,0,0.2-0.1,0.4-0.3
				c0-0.1,0-0.2,0-0.3C122.2,60.8,122.2,60.7,122.2,60.7z M122.1,67c-0.3,0.2-0.5,0.4-0.5,0.6c0,0.4,0.3,0.6,1,0.6
				c0.2,0,0.4-0.1,0.5-0.2L122.1,67z M122.8,63.3c0-0.2-0.1-0.3-0.3-0.3c-0.3,0-0.4,0.1-0.4,0.4l0,0h0.7V63.3z M122.6,59.7V60
				l0.3-0.2H122.6z M123,61.6c-0.2-0.2-0.3-0.3-0.3-0.3h-0.1l0.3,0.5L123,61.6z M125.7,65.7c-0.3-0.5-0.6-0.7-0.9-0.7
				c-0.3,0-0.6,0.2-1,0.5c-0.1,0.1-0.3,0.2-0.4,0.3c-0.1,0.1-0.3,0.2-0.5,0.3l0.2,0.3h0.2c0.3,0,0.4-0.1,0.5-0.3
				c0.1,0,0.2,0,0.3-0.1c0.1-0.1,0.2-0.1,0.4-0.2c0.1,0,0.3-0.1,0.4-0.2c0.1-0.1,0.2-0.1,0.3-0.1c0.2,0,0.4,0.1,0.6,0.3V65.7z
				 M123.8,69.3c0-0.2-0.1-0.3-0.3-0.3c-0.3,0-0.4,0.1-0.4,0.4v0.1c0.2,0.2,0.3,0.3,0.4,0.3l0.1,0C123.7,69.5,123.8,69.4,123.8,69.3
				z M124.3,62.7c0-0.2-0.1-0.3-0.3-0.3c-0.3,0-0.4,0.1-0.4,0.4v0.1c0.2,0.2,0.4,0.3,0.4,0.3l0.1,0
				C124.2,62.8,124.3,62.7,124.3,62.7z M123.9,63.6h-0.4V64h0.4V63.6z M125.4,68.3c-0.1-0.3-0.4-0.5-0.7-0.5c-0.4,0-0.8,0.2-1.2,0.5
				l0.5,0.5c0.1,0,0.1,0,0.2,0h0.1c0.1,0,0.2,0,0.3-0.1c0.1-0.1,0.2-0.1,0.3-0.2c0.1-0.1,0.2-0.1,0.3-0.2
				C125.3,68.3,125.4,68.3,125.4,68.3z M124.5,61.5c0,0-0.1-0.2-0.3-0.4l-0.5,0.5l0.2,0.2h0.1c0,0,0.1,0,0.1-0.1
				C124.3,61.7,124.4,61.7,124.5,61.5L124.5,61.5z M123.8,70.8c0.3,0.7,0.8,1.1,1.4,1.2c0.3,0,0.5-0.1,0.7-0.4L123.8,70.8z
				 M124.3,73.7l-0.3,0.3l0.3,0.2l0.2-0.2L124.3,73.7z M124.9,72.9c0-0.1-0.1-0.2-0.2-0.4c-0.1-0.2-0.2-0.2-0.3-0.2l-0.2,0.5
				c0,0.1,0.1,0.1,0.2,0.2c0.1,0,0.2,0,0.3,0h0.1L124.9,72.9L124.9,72.9z M127.3,74.4c-0.2-0.4-0.5-0.7-0.8-1
				c-0.3-0.2-0.6-0.4-0.9-0.5l0.9,0.7l-0.2,0.3c0.4,0.4,0.6,0.5,0.7,0.5C127.2,74.4,127.3,74.4,127.3,74.4z M126.6,65.9l-0.5,0.5
				l0.3,0.2h0.2c0.2,0.1,0.4,0,0.5-0.2L126.6,65.9z M128.5,71.8c-0.1,0-0.1,0-0.2,0c-0.1,0-0.1,0-0.2,0c-0.1,0-0.2,0-0.4,0
				c-0.1,0-0.3,0.1-0.5,0.1c-0.2,0.1-0.4,0.2-0.5,0.2s-0.2,0.1-0.3,0.1l0.2,0.2l0.4,0c0.4,0,0.7,0,0.9-0.1
				C128.2,72.2,128.4,72,128.5,71.8z M126.7,75.7h-0.3V76h0.3V75.7z M127.6,67.4c0-0.2-0.1-0.3-0.3-0.3c-0.1,0-0.4,0.2-0.7,0.5
				c0.1,0.2,0.2,0.3,0.4,0.3h0.3C127.5,67.6,127.6,67.4,127.6,67.4z M128.3,69c0-0.2-0.1-0.3-0.3-0.3c-0.1,0-0.2,0-0.3,0.1
				c-0.1,0.1-0.2,0.1-0.4,0.2s-0.3,0.1-0.4,0.2c-0.1,0.1-0.2,0.1-0.3,0.1l0.5,0.4c0-0.1,0.1-0.2,0.2-0.2s0.3-0.1,0.4-0.2
				c0.1-0.1,0.2-0.1,0.3-0.2C128.1,69.1,128.2,69,128.3,69z M128.3,76.3c-0.1-0.1-0.1-0.1-0.2-0.2c-0.1,0-0.1,0-0.2,0
				c-0.1,0-0.3,0.1-0.4,0.2c-0.2,0.1-0.3,0.2-0.4,0.3l0.3,0.2l0.1,0h0C127.6,76.8,127.9,76.6,128.3,76.3z M128,65.6
				c-0.2,0-0.4,0.1-0.5,0.3c0,0,0.1,0,0.1,0.1c0,0,0.1,0.1,0.1,0.2s0.1,0.1,0.2,0.2c0.1,0,0.1,0.1,0.2,0.1h0.1l0.2-0.4
				C128.5,65.7,128.3,65.6,128,65.6z M129.4,73.4c-0.1-0.2-0.3-0.3-0.5-0.3h-0.6c-0.2,0.1-0.3,0.2-0.3,0.4c0,0.2,0.2,0.3,0.5,0.3
				C128.9,73.9,129.2,73.8,129.4,73.4z M128.4,77.7c-0.2,0-0.3,0.1-0.4,0.3l0.3,0.2c0.2,0,0.4-0.1,0.5-0.2c0.1-0.1,0.2-0.2,0.2-0.3
				H128.4z M129.9,64c-0.1,0.3-0.3,0.5-0.7,0.5c-0.6,0-0.9,0.2-1,0.5l0.5,0.5h0.1c0.1,0,0.3,0,0.4-0.1c0.1-0.1,0.2-0.2,0.3-0.3
				c0.3-0.5,0.5-0.7,0.5-0.7L129.9,64z M131.1,61.2c0.1,0,0,0-0.2,0c-0.2,0-0.5,0-1,0c-0.5,0-0.9,0.1-1.2,0.3l0.7,0.5
				c0.1-0.1,0.4-0.2,1-0.3C130.8,61.5,131.1,61.4,131.1,61.2z M132,69.4c-0.1-0.6-0.4-0.9-0.7-0.9c-0.1,0-0.3,0-0.6,0.1
				s-0.4,0.1-0.6,0.1c-0.3,0-0.5-0.1-0.7-0.3l0.5,1l-0.9,0.5c0.4,0.1,0.8,0.2,1.1,0.2c0.3,0,0.5,0.1,0.6,0.1
				C131.3,70.2,131.8,69.9,132,69.4z M129.7,76.3l-0.2,0.3l0.2,0.2l0.3-0.2L129.7,76.3z M130.6,66.6c-0.5,0.2-0.8,0.5-1,1l0.3,0.3
				c0.1-0.1,0.2-0.3,0.3-0.5C130.3,67.1,130.5,66.9,130.6,66.6z M130.4,72.8l-0.7-0.3l0.7,0.5V72.8z M130.3,59.6h-0.3V60h0.3V59.6z
				 M131.3,63c-0.4-0.3-0.7-0.5-0.8-0.5c-0.3,0-0.4,0.1-0.4,0.4c0,0.1,0.1,0.3,0.3,0.4h0.5C131.1,63.3,131.3,63.2,131.3,63z
				 M131.3,59.4c0-0.3-0.2-0.4-0.5-0.4c-0.2,0-0.4,0.1-0.5,0.3l0.7,0.5C131.3,59.5,131.3,59.4,131.3,59.4z M131.6,65.4
				c-0.1,0-0.1-0.1-0.2-0.1c-0.1,0-0.1-0.1-0.2-0.2c-0.1-0.1-0.2-0.1-0.2-0.2c-0.1,0-0.1-0.1-0.2-0.1c-0.1,0-0.3,0.1-0.3,0.2
				l0.5,0.5h0.2C131.3,65.7,131.5,65.6,131.6,65.4z M133.7,66.8c-0.1,0-0.1,0-0.2,0c0,0-0.1,0-0.1,0c-0.1,0-0.3,0-0.5,0.1
				c-0.2,0-0.4,0.1-0.5,0.1c-0.2,0-0.4,0-0.5-0.1c-0.2-0.1-0.3-0.2-0.4-0.4l-0.1,0.2c0,0.2,0.1,0.3,0.2,0.4c0.1,0.1,0.2,0.2,0.4,0.3
				c0.1,0.1,0.3,0.2,0.4,0.3c0.1,0.1,0.2,0.2,0.3,0.3c0.1,0,0.1,0,0.2,0c0,0,0,0,0.1,0c0.1,0,0.2,0,0.2-0.1c0.1-0.1,0.1-0.2,0.2-0.3
				c0.1-0.1,0.2-0.2,0.2-0.3C133.5,66.9,133.6,66.9,133.7,66.8z M132.2,63c-0.3,0-0.4,0.1-0.4,0.4l0,0c0.2,0.2,0.3,0.3,0.4,0.3h0.1
				l0.2-0.4C132.5,63.1,132.4,63,132.2,63z M132.3,65.7l-0.3,0.2l0.3,0.2l0.2-0.2L132.3,65.7z M132.5,55.2c0.1,0.2,0.3,0.3,0.3,0.3
				c0.1,0,0.2,0,0.2-0.1c0.1-0.1,0.2-0.2,0.2-0.2c0.1-0.1,0.2-0.2,0.2-0.2c0.1-0.1,0.1-0.1,0.1-0.1L132.5,55.2z M133,60.4l-0.3,0.3
				l0.3,0.2l0.2-0.2L133,60.4z M134.2,63c-0.1,0-0.2,0-0.3-0.1s-0.2-0.2-0.3-0.3c-0.1-0.1-0.2-0.2-0.3-0.3c-0.1-0.1-0.2-0.1-0.2-0.1
				c-0.1,0-0.2,0.1-0.4,0.2c0.1,0,0.2,0,0.3,0.1c0.1,0.1,0.2,0.2,0.3,0.3c0.1,0.1,0.2,0.2,0.3,0.3c0.1,0.1,0.2,0.1,0.2,0.1
				C133.9,63.3,134,63.2,134.2,63z M134.2,64.3c0-0.2-0.1-0.3-0.4-0.3c-0.1,0-0.3,0.2-0.6,0.5c0.1,0.2,0.2,0.3,0.4,0.3h0.3
				C134.1,64.5,134.2,64.4,134.2,64.3z M134.4,68.5c-0.1-0.1-0.1-0.1-0.2-0.2c-0.1,0-0.2-0.1-0.4-0.1c-0.3,0-0.5,0.1-0.6,0.3
				l0.2,0.3h0.5C134.2,68.7,134.3,68.6,134.4,68.5z M135.1,65.4c-0.1-0.1-0.2-0.2-0.4-0.2c-0.1,0-0.1,0-0.2,0.1
				c-0.1,0.1-0.2,0.2-0.3,0.2c-0.1,0.1-0.2,0.2-0.4,0.2c-0.1,0.1-0.2,0.1-0.3,0.1l0.2,0.2c0.1-0.1,0.2-0.1,0.3-0.1
				c0.1,0,0.3-0.1,0.4-0.1c0.2,0,0.3-0.1,0.4-0.2C135,65.6,135.1,65.5,135.1,65.4z M134.2,57.8c0-0.1-0.1-0.2-0.3-0.4
				c-0.2,0.1-0.3,0.2-0.3,0.4c0,0.2,0.1,0.3,0.3,0.4L134.2,57.8L134.2,57.8z M135.6,76.7c-0.1,0-0.2,0-0.3-0.1
				c-0.1,0-0.2-0.1-0.4-0.2c-0.1-0.1-0.2-0.1-0.4-0.2c-0.1,0-0.2-0.1-0.3-0.1c-0.2,0-0.4,0.1-0.6,0.3c0.3,0.1,0.5,0.2,0.8,0.3
				c0.2,0.1,0.4,0.1,0.6,0.1C135.3,76.9,135.5,76.8,135.6,76.7z M134.2,74.4l-0.2,0.2l0.2,0.3l0.3-0.3L134.2,74.4z M135.4,60.7
				l-0.5,0.5l0.2,0.2c0.2,0,0.3-0.2,0.3-0.4v-0.1V60.7z M135.2,78.3h-0.3v0.3h0.3V78.3z M136.1,54.8c-0.2,0.1-0.5,0.2-1,0.5
				C135.3,55.2,135.7,55,136.1,54.8z M135.4,69.4v0.2l0.2-0.2H135.4z M135.6,71.5l-0.2,0.3l0.2,0.2l0.3-0.2L135.6,71.5z M135.9,70.2
				h-0.3v0.4h0.3V70.2z M136.8,60.4c-0.1-0.1-0.3-0.3-0.4-0.3c-0.1-0.1-0.2-0.1-0.3-0.1c-0.2,0-0.2,0.1-0.3,0.3
				c0.3,0.3,0.6,0.5,0.7,0.5c0,0,0.1,0,0.1,0c0,0,0.1,0,0.1,0V60.4z M136.5,68c-0.1-0.2-0.2-0.3-0.3-0.3c-0.2,0-0.3,0.1-0.3,0.3
				l0.2,0.3h0.1C136.2,68.3,136.3,68.2,136.5,68z M136.3,63.5c-0.1,0.1-0.2,0.2-0.2,0.4c0,0.2,0.1,0.3,0.3,0.3c0,0,0.1-0.1,0.3-0.3
				L136.3,63.5z M137.2,74.4l-0.2,0.2l0.2,0.3l0.3-0.3L137.2,74.4z M137.6,61.5h-0.4v0.3h0.4V61.5z M137.6,72.4h-0.4v0.4h0.4V72.4z
				 M139.4,54.8c-0.2-0.2-0.4-0.3-0.6-0.3c-0.1,0-0.2,0.1-0.4,0.3c-0.2,0.2-0.5,0.4-0.9,0.7c0.1-0.3,0.4-0.5,0.8-0.5
				C138.9,55,139.2,54.9,139.4,54.8z M139.5,70.5h-0.3v0.4h0.3V70.5z"/>
			<path class="st12" d="M170.9,84.4c-0.4,0.6-1.3,0.9-2.5,0.8l-0.8,0c-0.2-0.3-0.5-0.5-0.8-0.5c-0.1,0-0.3,0-0.5,0.1
				c-0.2,0-0.4,0.1-0.5,0.1c-0.2,0-0.4,0.1-0.5,0.1c-0.2,0-0.3,0-0.4,0c-0.7,0-1.2-0.7-1.5-2.1c-0.1-0.5-0.2-0.9-0.3-1.4
				c-0.1-0.4-0.2-0.9-0.3-1.4c-0.6-0.2-1.3-0.3-1.9-0.4c-0.8,0-1.5,0.1-2,0.2c-0.5,0.2-0.9,0.5-1.1,0.9c-0.1,0.4-0.3,0.8-0.4,1.2
				c-0.1,0.4-0.3,0.7-0.4,1.1c-0.3,0.8-1,1.2-2.3,1.2c-0.1,0-0.3,0-0.5-0.1c-0.2,0-0.4,0-0.7-0.1c-0.2,0-0.5-0.1-0.7-0.1
				c-0.2,0-0.4,0-0.6-0.1c-0.1,0-0.2,0-0.5,0c-0.2,0-0.4,0-0.5,0c-0.4,0-0.8-0.1-1-0.4c-0.3-0.3-0.5-0.6-0.7-1.1
				c0.1-0.2,0.1-0.3,0.2-0.5c0.1-0.1,0.2-0.4,0.3-0.6l2.4-9.5c0-0.2,0.1-0.5,0.1-0.8c0-0.3,0.1-0.6,0.1-1c0.3-1,0.7-2.2,1-3.5
				c0.4-1.4,0.7-3,1.1-4.9l2-8.4c0.2-0.6,0.3-1.1,0.4-1.5c0.1-0.4,0.2-0.7,0.3-0.8c0.2-0.4,0.5-0.6,0.8-0.8c0.4-0.2,0.8-0.2,1.2-0.2
				c0.1,0,0.3,0,0.6,0.1c0.2,0,0.5,0.1,0.8,0.1c0.3,0,0.5,0.1,0.8,0.1c0.2,0,0.4,0.1,0.6,0.1c0.5,0,0.9,0,1.3-0.2c0,0,0.1,0,0.4,0
				s0.7,0,1.3,0c0.6,0,1.1,0.3,1.4,0.6c0.1,0.1,0.1,0.2,0.2,0.5c0.1,0.3,0.2,0.6,0.4,1.1c0,0.1,0,0.4,0,0.6c0,0.3,0,0.6,0.1,0.9
				c0,0.3,0.1,0.6,0.1,0.9c0,0.3,0,0.5,0,0.7c0,0.3-0.1,0.7-0.2,0.9c0.4,0.5,0.7,1.3,0.8,2.4c0,0.4,0.1,0.9,0.1,1.3
				c0,0.4,0.1,0.8,0.2,1.2l1.3,11.9c0.5,0.6,0.7,1.3,0.6,2l0,0.2l-0.3,0.2l0.4,0.5c0,0.5,0,1,0.1,1.6c0.1,0.6,0.2,1.3,0.4,2.1
				c0.1,0.9,0.2,1.6,0.3,2.3c0.1,0.6,0.1,1.2,0.1,1.6L170.9,84.4z M154,77.1c0,0-0.1-0.2-0.2-0.4l-0.3,0.2
				C153.6,77,153.8,77.1,154,77.1L154,77.1L154,77.1z M155.3,63.7l-0.4,0l0,0.3l0.4,0L155.3,63.7z M155.7,78.6
				c-0.1-0.1-0.3-0.2-0.5-0.2l-0.3,0l0.5,0.5L155.7,78.6z M156.7,74.1c0,0-0.1-0.2-0.2-0.4l-0.3,0.2c0.2,0.2,0.3,0.3,0.4,0.3
				L156.7,74.1L156.7,74.1z M156.9,71.8l-0.3,0l0,0.3l0.3,0L156.9,71.8z M157.1,69.6l-0.2,0.2l0.4,0.5l0.2-0.2L157.1,69.6z
				 M157.2,76.5l-0.4,0l0,0.4l0.4,0L157.2,76.5z M158.3,59.8l-0.3,0l0,0.3l0.3,0L158.3,59.8z M158.2,68l-0.3,0
				c-0.2,0-0.3,0.1-0.5,0.2c0.2,0.2,0.3,0.3,0.4,0.3l0.1,0C158.1,68.2,158.2,68.1,158.2,68L158.2,68z M158.4,72.2l-0.3,0
				c-0.4-0.1-0.7,0.1-0.9,0.4c0,0.2,0.2,0.3,0.4,0.3l0.6,0c0.1-0.1,0.2-0.2,0.2-0.5L158.4,72.2z M159.3,56.2
				c-0.1-0.2-0.2-0.3-0.4-0.3l-0.3,0l0,0.1c-0.1,0.3,0.1,0.4,0.5,0.4l0.2,0L159.3,56.2z M159.4,58.6c-0.1-0.2-0.2-0.3-0.5-0.3
				c-0.2,0-0.4,0.1-0.5,0.2l0.2,0.3l0.3,0C159.2,58.8,159.4,58.8,159.4,58.6z M158.6,77.1c-0.1-0.1-0.3-0.2-0.5-0.2l-0.6,0l0.7,0.7
				L158.6,77.1z M159,62l-0.2-0.4c-0.2,0-0.3,0.1-0.3,0.3c0,0.2,0.1,0.3,0.2,0.4L159,62L159,62z M158.3,79.2l-0.3,0
				c-0.2,0-0.4,0.1-0.5,0.2c0.2,0.2,0.3,0.3,0.4,0.3l0.1,0l0.3-0.3L158.3,79.2z M162.9,73c0-0.1,0-0.1,0-0.2c0-0.1-0.1-0.1-0.1-0.1
				l-0.1-5.9l0.5-0.4l-0.5,0c-0.1-0.5-0.3-1-0.3-1.5c-0.1-0.5,0-1,0.1-1.6c-0.2-0.4-0.5-0.6-0.9-0.6l-0.3,0
				c-0.6,0.4-0.9,0.9-0.8,1.6c-0.5,0.4-0.8,1.3-0.9,2.8c0,1.3-0.5,2.1-1.3,2.2l-0.1,0.1c0,0.1,0,0.2,0.1,0.2
				c0.1,0.1,0.2,0.1,0.3,0.2c0.1,0,0.2,0.1,0.3,0.1c0.1,0,0.2,0.1,0.2,0.1c-0.1,0.1-0.2,0.3-0.2,0.4c-0.1,0.2-0.1,0.3-0.1,0.5
				c0,0.1,0,0.3,0,0.4c0,0.2,0,0.3,0.1,0.5c0,0.2,0,0.4,0.1,0.5c0,0.2,0,0.3,0,0.5c0,0.5-0.3,0.9-1,1.1l0.2,0.2
				c0.2-0.2,0.4-0.3,0.6-0.3c0.3,0,0.6-0.1,1-0.1l1.7,0.1c0.1,0,0.2,0.2,0.2,0.5l0-0.2c0,0,0.1-0.1,0.2-0.2c0.1-0.1,0.2-0.2,0.4-0.4
				C162.8,73.5,162.9,73.3,162.9,73z M160.7,60.3c-0.1,0.1-0.2,0.1-0.3,0.1c-0.1,0-0.3,0.1-0.4,0.1c-0.2,0-0.3,0.1-0.4,0.1
				c-0.1,0.1-0.2,0.2-0.3,0.3c0.1,0.1,0.2,0.2,0.3,0.2c0.1,0,0.1,0,0.2-0.1c0.1-0.1,0.2-0.2,0.3-0.3c0.1-0.1,0.2-0.2,0.2-0.3
				c0.1-0.1,0.1-0.1,0.2-0.1L160.7,60.3z M161.8,57.3c0.1,0-0.3-0.1-1.2-0.1c-0.4,0-0.7,0-1,0.2l0.4,0.5c0.1-0.1,0.5-0.2,1.1-0.2
				C161.6,57.8,161.8,57.7,161.8,57.3z M158.8,77.9l-0.2,0.5l0.2-0.2L158.8,77.9z M160.6,54.7L160.6,54.7c-0.3,0-0.4,0-0.5,0.2
				l0.2,0.3l0.5-0.5L160.6,54.7z M161.3,77.3c-0.2,0-0.3,0-0.5-0.1c-0.1-0.1-0.3-0.3-0.6-0.5c-0.4-0.5-0.8-0.7-1.1-0.7
				c-0.2,0.1-0.3,0.2-0.3,0.3c0,0.2,0.1,0.3,0.2,0.4c0.1-0.1,0.3-0.1,0.5-0.1c0.2,0,0.5,0.2,0.8,0.6c0.3,0.4,0.5,0.5,0.6,0.5
				c0.1,0,0.3-0.1,0.4-0.4L161.3,77.3z M161.1,52.8l-0.5,0l0.5,0.3L161.1,52.8z M162,59.2c-0.3-0.3-0.5-0.5-0.6-0.5
				c-0.1,0-0.2,0.1-0.3,0.2l0.4,0.5l0.1,0C161.6,59.4,161.7,59.4,162,59.2z M162.2,55.6c0,0-0.1-0.2-0.2-0.4l-0.3,0.2
				C161.9,55.6,162,55.7,162.2,55.6L162.2,55.6L162.2,55.6z M161.4,61.1l0.4,0.7l0.3-0.2L161.4,61.1z M160.9,75.2l0,0.2l0.2-0.2
				L160.9,75.2z M163.1,59.5L163.1,59.5c-0.1-0.1-0.3,0-0.4,0.2l0.2,0.2C163.1,59.8,163.2,59.7,163.1,59.5L163.1,59.5z M164.8,76.8
				c-0.2-0.4-0.6-0.5-1.1-0.6c-0.2,0-0.4,0-0.6,0c-0.2,0-0.4,0.1-0.6,0.2l0.2,0.2c0.1,0,0.2-0.1,0.3-0.1c0.1,0,0.2-0.1,0.3-0.1
				c0.1,0,0.2,0,0.3,0.1c0.1,0,0.3,0.1,0.4,0.2c0.1,0.1,0.3,0.1,0.4,0.2c0.1,0.1,0.2,0.1,0.3,0.1L164.8,76.8z M163.6,63.5l-0.3,0
				l0.2,0.2L163.6,63.5z M162.5,79.3l0,0.2l0.3-0.2L162.5,79.3z M164.1,68c-0.1-0.1-0.1-0.2-0.3-0.2c-0.3,0-0.4,0.1-0.4,0.4l0,0.1
				l0.3,0C163.8,68.3,164,68.2,164.1,68z M164.2,69.2L164.2,69.2c-0.1,0-0.2-0.1-0.4-0.2l-0.3,0.2c0.1,0.2,0.2,0.3,0.5,0.3l0.2,0
				L164.2,69.2z M164.7,60.5L164.7,60.5c-0.1,0-0.3,0.1-0.4,0.2l0.2,0.2C164.7,60.8,164.7,60.7,164.7,60.5L164.7,60.5z M165.3,75.4
				c-0.1-0.3-0.3-0.5-0.6-0.7c-0.3-0.1-0.7-0.3-1-0.4c0.1,0.3,0.3,0.5,0.7,0.7C164.7,75.1,165,75.3,165.3,75.4z M164.6,64.4l-0.3,0
				l0,0.3l0.3,0L164.6,64.4z M165.9,73.3c-0.1,0-0.2,0-0.3-0.1s-0.3-0.1-0.4-0.2c-0.2-0.1-0.3-0.1-0.4-0.2c-0.1,0-0.2-0.1-0.3-0.1
				c-0.1,0-0.2,0-0.3,0c-0.1,0-0.2,0.1-0.3,0.1c0.1,0,0.2,0.1,0.3,0.1c0.2,0.1,0.3,0.1,0.4,0.2c0.1,0.1,0.3,0.1,0.4,0.2
				c0.1,0.1,0.3,0.1,0.3,0.1C165.5,73.5,165.7,73.5,165.9,73.3z M164.4,70.7l-0.3,0.2l0.2,0.3l0.2-0.2L164.4,70.7z M166.3,79.1
				c0-0.2-0.1-0.3-0.4-0.4c-0.2,0-0.3,0.1-0.4,0.2l0.5,0.5C166.2,79.2,166.3,79.1,166.3,79.1z M167.5,70.8l-0.3,0.2l0.2,0.3l0.2-0.2
				L167.5,70.8z"/>
			<path class="st13" d="M200.6,59c-0.1,0.1-0.1,0.5,0,1.2c0,0.7,0.1,1.7,0.1,3c0,0.7-0.1,1.4-0.3,2c-0.2,0.6-0.5,1.3-1,2
				c-0.4,0.6-0.8,1.2-1.3,1.7c-0.5,0.5-1.1,0.9-1.8,1.2c-0.2,0.1-0.6,0.2-1,0.3c-0.4,0.1-1.1,0.2-1.8,0.3c-1.4,0.2-2.2,0.8-2.5,1.7
				c-0.1,0.2-0.2,0.3-0.2,0.4c0,0.1-0.1,0.3-0.2,0.4l2.2,9.8c0.1,0.5-0.3,1.1-1.2,1.9c-0.4-0.1-0.9-0.1-1.7,0
				c-0.1,0-0.3,0.1-0.6,0.1c-0.3,0.1-0.5,0.1-0.8,0.2c-0.3,0.1-0.6,0.1-0.8,0.2c-0.3,0.1-0.5,0.1-0.7,0.2c-0.7,0.1-1.3,0-1.7-0.3
				c-0.4-0.3-0.6-0.8-0.6-1.6l-1.8-12c0,0,0.1,0,0.3,0c0.2,0,0.6-0.3,1-0.9l0-0.1c0-0.1-0.1-0.1-0.3-0.3l-1.1,0.4l-0.5-3
				c-0.1-0.5-0.1-1-0.2-1.5c0-0.5,0-0.9-0.1-1.3c-0.1,0-0.2-0.2-0.2-0.4l-0.1-0.6l0.1-0.4l-2-10.1c0-0.2,0-0.5,0.2-0.8
				s0.5-0.6,0.8-0.9l10.5-1.5c0.2,0.2,0.5,0.3,0.9,0.2c0.1,0,0.3-0.1,0.6-0.1c0.3-0.1,0.4-0.1,0.6-0.1c0.4-0.1,0.8,0.1,1.2,0.4
				c0.4,0.3,0.8,0.4,1,0.2c1.2,0.6,2.1,1.4,2.8,2.4c0.7,1,1.2,2.3,1.4,3.9c0.2,0.2,0.3,0.5,0.4,0.8C200.3,58.3,200.4,58.7,200.6,59
				L200.6,59z M184.8,67.2c-0.1-0.1-0.2-0.1-0.4-0.1c-0.2,0-0.5,0.2-0.8,0.5l0.3,0.2c0.1,0,0.1,0,0.1,0l0,0
				C184.2,67.8,184.4,67.6,184.8,67.2z M185.8,75.9l-0.3,0l0.3,0.2L185.8,75.9z M187.4,79.3c-0.1,0-0.3-0.1-0.5-0.2
				c-0.2-0.1-0.3-0.2-0.5-0.2s-0.2,0.1-0.3,0.3c0.1,0,0.1,0,0.2,0.1c0.1,0,0.2,0.1,0.3,0.1c0.1,0,0.2,0.1,0.2,0.1
				c0.1,0,0.2,0.1,0.2,0.1c0.1,0,0.1,0,0.2-0.1C187.3,79.4,187.3,79.4,187.4,79.3z M184.5,60.7c-0.1-0.2-0.3-0.2-0.5-0.2
				c-0.1,0-0.2,0.1-0.3,0.3l0.3,0.2l0,0C184.1,61.1,184.3,61,184.5,60.7z M185.7,65.4c-0.1-0.2-0.3-0.2-0.4-0.2l-0.1,0l-0.2,0
				l0.6,0.4L185.7,65.4z M186,67.7l-0.1,0.5l0.3-0.5L186,67.7z M185.7,63.9l-0.2,0.2l0.6,0.4l0.2-0.2L185.7,63.9z M187.2,73.8
				l-0.2,0.3l0.2,0.2l0.3-0.3L187.2,73.8z M187.4,71.2l-0.3,0l0.1,0.4l0.3,0L187.4,71.2z M188.3,66.6c-0.3-0.1-0.6-0.2-0.9-0.1
				c-0.4,0.1-0.6,0.3-0.7,0.6l0.2,0.2c0.1,0,0.2,0,0.3,0l0,0c0.1,0,0.2,0,0.3-0.1c0.1,0,0.2-0.1,0.2-0.2c0.2-0.1,0.3-0.2,0.4-0.3
				C188.2,66.7,188.2,66.7,188.3,66.6z M187,63.2c-0.1-0.1-0.3-0.2-0.4-0.2c-0.2,0-0.3,0.1-0.3,0.3l0.3,0.2l0.1,0
				C186.7,63.5,186.8,63.4,187,63.2z M187.9,61.2c0,0-0.1,0-0.2-0.1c-0.1,0-0.2-0.1-0.3-0.1c-0.1-0.1-0.3-0.1-0.4-0.1
				c-0.1,0-0.2,0-0.3,0c-0.1,0-0.1,0-0.2,0.1c0.4,0.3,0.8,0.5,1.2,0.4C187.8,61.3,187.8,61.3,187.9,61.2z M188.2,69.2
				c0-0.1-0.1-0.2-0.3-0.4c-0.2,0.1-0.2,0.3-0.2,0.4c0,0.2,0.1,0.2,0.3,0.3L188.2,69.2L188.2,69.2z M186.8,55.8
				c-0.1-0.2-0.3-0.2-0.5-0.2c-0.3,0.1-0.5,0.2-0.4,0.5l0,0.1l0.5-0.1C186.7,56.1,186.8,56,186.8,55.8z M189,71.1
				c-0.1-0.1-0.2-0.1-0.3-0.2c-0.1,0-0.1,0-0.1,0c-0.2,0-0.3,0.2-0.2,0.4c0,0.2,0.1,0.3,0.2,0.3L189,71.1z M189,67.8l-0.4,0.1
				l0.1,0.3l0.4-0.1L189,67.8z M194.1,64.3c-0.2,0-0.3,0-0.5-0.1c-0.2,0-0.5-0.1-0.8-0.3c0.4-1,0.5-2.1,0.3-3.5
				c-0.1-0.8-0.3-1.5-0.5-2c-0.2-0.6-0.4-1-0.6-1.2c-0.3-0.3-0.8-0.5-1.6-0.5c-1,0-1.7-0.1-2.1-0.4l-0.2,0.5l0.5-0.1
				c0.2,0.1,0.3,0.2,0.3,0.4l0,0.2c-0.1,0.3-0.2,0.5-0.4,0.6c0,0-0.1,0-0.3,0c-0.1,0-0.2-0.1-0.3-0.1s-0.2-0.1-0.3-0.1
				c-0.1,0-0.2,0-0.3,0c0.1,0.2,0.3,0.4,0.5,0.6c0.2,0.1,0.4,0.3,0.6,0.4c0,0.1,0.1,0.2,0.1,0.2c0,0,0,0,0,0.1
				c0,0.2-0.1,0.7-0.3,1.4c0.3,0.2,0.5,0.6,0.6,1c0,0.1,0,0.2,0,0.3c0,0.1,0,0.3,0,0.4c0,0.2,0,0.3,0,0.4c0,0.1,0,0.2,0,0.4
				c0.1,0.3,0.2,0.6,0.3,0.9c0.2,0.3,0.4,0.5,0.6,0.7c0.3,0.2,0.6,0.3,0.9,0.4c0.3,0.1,0.7,0.1,1,0c-0.1,0.2-0.2,0.4-0.2,0.4
				l0.1,0.1l0.2,0c0.2,0,0.4-0.1,0.4-0.3l-0.7-0.4c0.1-0.4,0.3-0.6,0.5-0.7c0.1,0,0.2,0,0.3,0.1c0.1,0.1,0.3,0.2,0.4,0.2
				c0.2,0.1,0.3,0.1,0.5,0.2c0.1,0.1,0.2,0.1,0.3,0.1C193.9,64.8,194.1,64.7,194.1,64.3z M189,64.5l-0.4,0.1l0.1,0.3l0.4-0.1
				L189,64.5z M189.6,67l-0.3,0l0.1,0.4l0.3,0L189.6,67z M190.5,73.5l-0.2,0l0.2,0.2L190.5,73.5z M190.7,69.9l-0.2,0l0.1,0.5
				l0.2-0.4L190.7,69.9z M190.5,66c-0.2,0-0.4,0.2-0.4,0.3l0.3,0.2l0.4-0.5L190.5,66z M191.5,67.5c0-0.2-0.1-0.3-0.3-0.3
				c-0.3,0-0.4,0.2-0.4,0.5l0,0.1c0.2,0.1,0.4,0.2,0.5,0.2l0.1-0.1C191.5,67.6,191.5,67.5,191.5,67.5z M193.7,69.4
				c-0.1-0.1-0.4-0.2-0.6-0.2c-0.5,0.1-0.8,0.1-0.7,0.2c-0.2,0.1-0.3,0.2-0.3,0.4c0,0.2,0.2,0.3,0.4,0.3l0.5-0.1
				C193.3,69.9,193.6,69.7,193.7,69.4z M195,55.5c-0.5-0.1-0.9-0.2-1.2-0.3c-0.3-0.1-0.4-0.1-0.4-0.1c-0.6-0.2-1.2-0.2-1.7-0.2
				c-0.1,0.2-0.2,0.3-0.3,0.3c-0.1,0-0.2,0-0.4-0.1c-0.2-0.1-0.4-0.1-0.5-0.1c-0.1,0-0.2,0.1-0.3,0.3l1,0.3c0.2-0.2,0.5-0.3,0.9-0.4
				c0.3,0,0.7,0,1.3,0.2c0.3,0.1,0.6,0.1,0.8,0.2c0.2,0,0.4,0,0.6,0L195,55.5L195,55.5z M193.7,59l-0.3,0.1l0.1,0.3l0.3-0.1
				L193.7,59z M195.4,61.7l-0.1,0.5l0.1,0c0.1,0,0.1,0,0.2-0.1c0.1-0.1,0.1-0.1,0.2-0.2L195.4,61.7z M195.7,65.3l0.2,0l0.6-0.8
				L195.7,65.3z M195.8,60.3l-0.3,0l0.1,0.4l0.3,0L195.8,60.3z M196.8,66.9l-0.3,0l0.1,0.3l0.3,0L196.8,66.9z M197.6,58.7
				c0-0.1-0.1-0.2-0.3-0.4c-0.1,0.1-0.2,0.2-0.2,0.4c0,0.2,0.1,0.3,0.3,0.4L197.6,58.7L197.6,58.7z"/>
		</g>
	</g>
</g>
</svg>
