<?xml version="1.0" encoding="UTF-8"?>
<svg id="Layer_1" data-name="Layer 1" xmlns="http://www.w3.org/2000/svg" viewBox="0 0 20 20">
  <defs>
    <style>
      .cls-1 {
        fill: #fff;
      }
    </style>
  </defs>
  <g>
    <path class="cls-1" d="M13.63,15.1c0,.75,.03,1.5,0,2.24-.04,.76-.58,1.02-1.2,.59-.22-.15-.34-.1-.53,0-1.16,.6-2.4,.11-2.85-1.11-.43-1.17-.01-2.52,.95-3.04,.57-.31,1.15-.37,1.74-.07,.32,.16,.44,.06,.44-.28,0-.24,0-.49,.04-.73,.06-.4,.28-.69,.72-.68,.44,.01,.67,.31,.68,.71,.03,.79,0,1.58,0,2.36,0,0,0,0,0,0Zm-2.39-.34c-.54,0-.97,.51-.97,1.12,0,.61,.44,1.1,.98,1.1,.55,0,.97-.5,.96-1.11,0-.62-.45-1.11-.98-1.1Z"/>
    <path class="cls-1" d="M3.61,15.03c.41-.39,.8-.76,1.2-1.13,.33-.3,.71-.48,1.07-.11,.38,.38,.14,.74-.17,1.05q-.81,.83-.12,1.76c.14,.19,.29,.39,.41,.6,.18,.32,.15,.64-.17,.85-.31,.21-.63,.18-.87-.11-.29-.34-.53-.71-.81-1.06-.1-.13-.18-.36-.42-.26-.19,.07-.24,.26-.26,.45-.02,.18-.02,.37-.06,.54-.09,.35-.32,.57-.69,.55-.38-.02-.62-.25-.62-.61-.02-1.63-.02-3.27,0-4.9,0-.4,.29-.62,.69-.61,.41,.01,.63,.29,.65,.67,.03,.64,.02,1.29,.03,1.94,0,.12-.02,.24,.15,.4Z"/>
    <path class="cls-1" d="M16.16,13.54c.4,.02,.81,.08,1.2,.27,.34,.16,.58,.41,.42,.81-.16,.38-.48,.38-.82,.27-.21-.07-.42-.14-.64-.2-.18-.05-.39-.07-.46,.15-.06,.2,.14,.27,.28,.33,.28,.12,.57,.2,.85,.33,.7,.31,.98,.76,.93,1.4-.06,.66-.45,1.08-1.2,1.26-.73,.17-1.4,0-2.04-.36-.33-.18-.56-.44-.35-.84,.19-.35,.51-.34,.84-.19,.29,.13,.59,.28,.91,.31,.18,.02,.4,.02,.44-.21,.04-.21-.16-.26-.31-.31-.19-.07-.38-.13-.57-.19-.9-.32-1.29-.85-1.17-1.59,.11-.73,.76-1.21,1.68-1.23Z"/>
    <path class="cls-1" d="M8.18,15.82c0,.52,.02,1.05,0,1.57-.02,.42-.21,.76-.69,.76-.48,0-.68-.33-.68-.76-.01-1.01-.01-2.02,0-3.03,0-.44,.21-.75,.69-.75,.49,0,.67,.33,.69,.76,.02,.48,0,.97,0,1.45Z"/>
    <path class="cls-1" d="M7.51,12.02c.34,.02,.66,.16,.71,.61,.04,.37-.33,.71-.75,.69-.41-.02-.7-.21-.74-.65-.03-.36,.3-.64,.78-.65Z"/>
  </g>
  <g>
    <path class="cls-1" d="M6.83,11.36c.62,.42,1.41,.28,1.87-.34,.09-.12,.18-.25,.27-.39l.14-.23c.14,.32,.41,.66,.96,.78,.6,.14,1.11-.12,1.52-.74l.28-.41c.26,.57,.86,.9,1.48,.79,.72-.14,1.18-.79,1.08-1.54-.12-.94-.25-1.95-.41-3.05-.08-.6-.47-1.04-1.03-1.16-.56-.13-1.12,.1-1.45,.59l-.21,.32c-.06,.07-.11,.16-.16,.23-.16-.39-.47-.65-.9-.76-.19-.05-.38-.06-.55-.03-.34,.05-.64,.23-.87,.54-.1,.13-.19,.27-.3,.43l-.65,.97c-.51,.74-.96,1.41-1.4,2.09-.19,.29-.27,.62-.23,.96,.05,.37,.26,.71,.57,.92Zm.1-1.58c.45-.68,.91-1.34,1.4-2.08l.55-.83s.07-.11,.11-.16h0c.1-.15,.18-.29,.27-.41,.22-.29,.5-.39,.86-.3,.34,.07,.54,.3,.6,.66,.02,.08,.03,.17,.05,.28v.07s.05,.42,.05,.42l.24-.18c.16-.12,.25-.25,.32-.37,.02-.02,.04-.06,.06-.08,.11-.17,.22-.32,.33-.48l.06-.11c.04-.07,.09-.13,.14-.2,.22-.31,.55-.46,.9-.38,.34,.08,.56,.34,.61,.71,.16,1.1,.3,2.1,.41,3.05,.06,.46-.2,.84-.64,.93-.42,.08-.82-.18-.94-.62-.03-.08-.05-.19-.07-.31v-.02c-.01-.06-.03-.14-.04-.22l-.09-.39-.23,.34c-.07,.1-.14,.19-.2,.29l-.09,.13c-.15,.23-.3,.44-.44,.66-.29,.43-.59,.59-.96,.51-.39-.08-.59-.33-.67-.86,0-.05-.01-.11-.03-.17v-.02s-.02-.07-.03-.13l-.08-.38-.38,.55c-.12,.17-.23,.32-.33,.47-.04,.07-.09,.13-.14,.2-.08,.12-.16,.25-.25,.36-.3,.39-.76,.47-1.13,.22-.2-.14-.32-.34-.35-.55-.03-.19,.02-.39,.14-.58Z"/>
    <path class="cls-1" d="M9,4.24c.01,.24-.06,.48-.23,.69-.6,.77-1.21,1.53-1.89,2.37l-.75,.93c-.05,.06-.09,.12-.14,.18h0c-.13,.17-.24,.32-.37,.46-.3,.33-.64,.43-1.07,.29-.39-.13-.61-.41-.66-.86-.01-.1-.02-.21-.02-.34v-.07s0-.1-.01-.16l-.02-.36-.3,.2c-.2,.13-.32,.29-.41,.41-.03,.04-.06,.07-.08,.11-.15,.18-.3,.37-.44,.55l-.09,.12c-.06,.08-.12,.15-.18,.23-.29,.36-.7,.49-1.1,.37-.4-.13-.64-.46-.67-.91-.08-1.34-.14-2.56-.2-3.7-.03-.57,.33-1,.86-1.06,.51-.06,.96,.29,1.07,.83,.02,.11,.04,.24,.05,.38v.03c.01,.08,.02,.17,.03,.27l.06,.48,.31-.38c.09-.11,.18-.23,.27-.33l.12-.15c.21-.26,.41-.5,.6-.75,.39-.5,.76-.66,1.2-.52,.46,.14,.67,.46,.72,1.09,0,.07,.01,.13,.03,.22v.03s.02,.09,.02,.15l.06,.47,.52-.63c.16-.19,.29-.36,.43-.53,.06-.08,.12-.15,.18-.23,.11-.14,.22-.28,.33-.41,.38-.44,.95-.5,1.39-.15,.22,.18,.35,.43,.36,.69Z"/>
    <g>
      <path class="cls-1" d="M14.51,4.36c-.08-.25-.15-.51-.19-.77,0-.03-.02-.06-.04-.08-.12-.15-.11-.33,.02-.48,.1-.1,.22-.16,.34-.22,.35-.17,.72-.27,1.09-.36,.31-.07,.62-.16,.93-.18,.54-.05,1.05,.02,1.51,.32,.2,.13,.37,.29,.52,.48,.02,.03,.04,.05,.07,.07-.02-.07-.05-.13-.07-.2-.01-.05-.05-.1,0-.14,.06-.04,.11,0,.15,.05,.1,.11,.17,.23,.23,.36,.22,.47,.4,.95,.5,1.46,.1,.51,.08,1.03-.22,1.49-.28,.43-.67,.72-1.15,.88-.38,.13-.78,.21-1.18,.26-.1,.01-.1,.01-.08,.11,.04,.3,.08,.61,.12,.91,.04,.25,.11,.5,.14,.76,.02,.15,.01,.31-.04,.46-.03,.09-.08,.17-.16,.24-.06,.05-.13,.08-.21,.07-.13-.02-.22,.02-.3,.13-.12,.17-.27,.21-.46,.11-.03-.02-.06-.02-.1-.02-.25,.05-.42-.04-.52-.28-.02-.04-.03-.07-.08-.06-.05,.01-.08-.03-.11-.07-.04-.07-.06-.14-.07-.21-.06-.33-.06-.66-.06-.99,0-.29-.05-.58-.09-.86-.04-.32-.08-.65-.14-.97-.07-.46-.14-.93-.23-1.39-.05-.26-.14-.51-.21-.76,0-.02-.01-.05-.02-.07,0-.06,0-.06,.06-.04Zm3.07,.37c-.02-.16-.14-.4-.34-.6-.22-.23-.51-.29-.82-.26-.1,0-.1,.01-.08,.11,.11,.4,.19,.81,.26,1.22,.03,.17,.06,.33,.09,.5,0,.05,.03,.06,.08,.05,.1-.01,.2-.04,.29-.07,.02,0,.04-.01,.05-.04,.02-.04,.05-.05,.09-.07,.24-.12,.42-.45,.37-.84Z"/>
      <path class="cls-1" d="M14.27,3.8c0,.06,.02,.09,0,.13-.02,.05-.05,.06-.08,.02-.14-.2-.26-.42-.33-.66,0-.03-.01-.07,.02-.09,.03-.02,.06,0,.08,.03,.04,.04,.08,.08,.11,.13,.09,.15,.17,.3,.2,.45Z"/>
    </g>
  </g>
</svg>